<?xml version="1.0" standalone="no"?>
<!DOCTYPE svg PUBLIC "-//W3C//DTD SVG 1.1//EN" "http://www.w3.org/Graphics/SVG/1.1/DTD/svg11.dtd" >
<!--
2013-9-30: Created.
-->
<svg>
<metadata>
Created by iconfont
</metadata>
<defs>

<font id="tsfont" horiz-adv-x="1024" >
  <font-face
    font-family="tsfont"
    font-weight="500"
    font-stretch="normal"
    units-per-em="1024"
    ascent="896"
    descent="-128"
  />
    <missing-glyph />
    
    <glyph glyph-name="dot" unicode="&#59562;" d="M341.3 383c0 94.3 76.4 170.7 170.7 170.7S682.7 477.3 682.7 383 606.3 212.29999999999995 512 212.29999999999995 341.3 288.70000000000005 341.3 383z"  horiz-adv-x="1024" />

    
    <glyph glyph-name="img-left" unicode="&#59560;" d="M853.3 298.70000000000005v-85.3h-256v85.3h256z m0-170.7v-85.3H170.7V128h682.6z m-256 298.7h256v-85.3h-256v85.3z m0 128h256v-85.3h-256v85.3z m256 170.6V640H170.7v85.3h682.6zM512 554.7v-341.3H170.7V554.7H512z"  horiz-adv-x="1024" />

    
    <glyph glyph-name="hand" unicode="&#59561;" d="M981.3 427.2c0 46.9-38.4 85.3-85.3 85.3H626.8l40.5 195 1.3 13.7c0 17.5-7.3 33.7-18.8 45.2l-45.2 44.8L323.8 530c-15.8-15.4-25.2-36.7-25.2-60.2v-426.7c0-46.9 38.4-85.3 85.3-85.3h384c35.4 0 65.7 21.3 78.5 52.1l128.9 300.8c3.8 9.8 6 20.1 6 31.1v81.5l-0.4 0.4 0.4 3.5zM42.7-42.200000000000045h170.7v512H42.7v-512z"  horiz-adv-x="1024" />

    
    <glyph glyph-name="img-center" unicode="&#59558;" d="M853.3 725.3V640H170.7v85.3h682.6zM768 554.7v-341.3H256V554.7h512zM853.3 128v-85.3H170.7V128h682.6z"  horiz-adv-x="1024" />

    
    <glyph glyph-name="img-right" unicode="&#59559;" d="M426.7 298.70000000000005v-85.3h-256v85.3h256zM853.3 128v-85.3H170.7V128h682.6zM170.7 426.7h256v-85.3h-256v85.3z m0 128h256v-85.3h-256v85.3z m682.6 170.6V640H170.7v85.3h682.6z m0-170.6v-341.3H512V554.7h341.3z"  horiz-adv-x="1024" />

    
    <glyph glyph-name="drop-left" unicode="&#59554;" d="M618.7 170.89999999999998L405.3 384.2l213.3 213.3v-426.6z"  horiz-adv-x="1024" />

    
    <glyph glyph-name="drop-right" unicode="&#59555;" d="M405.3 597.6l213.3-213.3-213.3-213.4V597.6z"  horiz-adv-x="1024" />

    
    <glyph glyph-name="book" unicode="&#59556;" d="M896 149.29999999999995c-46.9 14.9-98.1 21.3-149.3 21.3-72.5 0-177.1-27.7-234.7-64V597.3c57.6 36.3 162.1 64 234.7 64 51.2 0 102.4-6.4 149.3-21.3v-490.7z m0 576c-47.4 14.9-99.4 21.3-149.3 21.3-83.2 0-172.8-17.1-234.7-64-61.9 46.9-151.5 64-234.7 64s-172.8-17.1-234.7-64v-625.1c0-10.7 10.7-21.3 21.3-21.3 4.3 0 6.4 2.1 10.7 2.1 57.6 27.7 140.8 46.9 202.7 46.9 83.2 0 172.8-17.1 234.7-64 57.6 36.3 162.1 64 234.7 64 70.4 0 142.9-12.8 202.7-44.8 4.3-2.1 6.4-2.1 10.7-2.1 10.7 0 21.3 10.7 21.3 21.3V682.7c-25.7 19.2-53.4 32-85.4 42.6z"  horiz-adv-x="1024" />

    
    <glyph glyph-name="text-delete" unicode="&#59557;" d="M896 318.5v85.3H128v-85.3h410.5c7.7-3 17.1-6 23.5-8.5 15.8-7.3 28.2-14.5 37.1-21.8 9-7.3 14.9-15.4 18.3-24.3 3-8.5 4.7-18.3 4.7-29.4 0-9.8-2.1-19.2-6-28.2-3.8-8.5-9.8-16.2-17.9-22.6-8.1-6.4-17.9-11.1-30.3-14.9-12.4-3.4-26.9-5.5-43.1-5.5-18.3 0-35.4 1.7-50.3 5.5-14.9 3.8-28.2 9.8-38.8 17.9-10.7 8.1-19.2 18.8-25.2 32s-10.7 32.4-10.7 51.6H273.1c0-23.5 3.4-48.2 10.2-67.4s15.8-36.3 27.7-51.6c11.9-14.9 25.6-28.2 41.8-39.3 15.8-11.1 33.3-20.5 52.1-27.7 18.8-7.3 38.4-12.8 58.9-16.6 20.5-3.4 41-5.5 61.4-5.5 34.1 0 65.3 3.8 93 11.9s51.6 19.2 71.3 33.7c19.6 14.5 35 32.9 45.7 54.2 10.7 21.3 16.2 45.7 16.2 73 0 25.6-4.3 48.6-13.2 68.7-2.1 4.7-4.7 9.8-7.3 14.1H896v0.7zM308.9 457.1c-11.1 20.5-16.6 43.9-16.6 71.3 0 26 5.5 49.5 17.1 71.3 11.1 21.3 26.9 39.7 47.4 55 20.5 14.9 44.8 26.9 72.5 35.4 28.2 8.1 59.3 12.4 93 12.4 34.6 0 65.7-4.7 94.3-14.5 28.2-9.4 52.5-23 72.1-40.1 20.1-17.1 35.4-37.5 46.1-61 10.7-23.5 16.2-49.1 16.2-77.2H622.5c0 13.2-2.1 25.2-6.4 36.3-3.8 11.5-10.2 20.9-18.8 29-8.5 8.1-19.2 14.1-32 18.8-12.8 4.3-28.2 6.8-45.2 6.8-16.6 0-31.6-1.7-43.9-5.5-12.4-3.8-22.6-9-30.7-15.4-8.1-6.8-14.5-14.5-18.8-23.5-4.3-9-6.4-18.3-6.4-28.2 0-20.5 10.7-37.5 31.6-51.6 16.2-10.7 32.9-20.5 60.2-29.9H315.3c-2.1 3.4-4.7 7.2-6.4 10.6z"  horiz-adv-x="1024" />

    
    <glyph glyph-name="label-s" unicode="&#59541;" d="M810.6 682.7V0L512 128 213.3 0l0.4 682.7c0 46.9 38 85.3 84.9 85.3h426.7c46.9 0 85.3-38.4 85.3-85.3z"  horiz-adv-x="1024" />

    
    <glyph glyph-name="label" unicode="&#59542;" d="M725.3 128L512 221l-213.3-93V682.7h426.7V128z m0 640H298.6c-46.9 0-84.9-38.4-84.9-85.3l-0.4-682.7L512 128l298.7-128V682.7c-0.1 46.9-38.5 85.3-85.4 85.3z"  horiz-adv-x="1024" />

    
    <glyph glyph-name="title" unicode="&#59543;" d="M810.7 703.8v-128H576v-512H448v512H213.3v128h597.4z"  horiz-adv-x="1024" />

    
    <glyph glyph-name="revover" unicode="&#59544;" d="M597.8 533.1V703.8l298.7-298.7-298.7-298.7V281.29999999999995c-213.3 0-362.7-68.3-469.3-217.6 42.7 213.4 170.7 426.7 469.3 469.4z"  horiz-adv-x="1024" />

    
    <glyph glyph-name="history" unicode="&#59545;" d="M789.3 789.8v-85.3H106.7v85.3h682.6zM448 576.5v-85.3H106.7v85.3H448zM320 363.20000000000005v-85.3H106.7v85.3H320z m353.8-3.6v-130.7l112-66.5-18.7-30.6-130.7 78.4V359.6h37.4zM320 149.79999999999995v-85.3H106.7v85.3H320z m341.1 273.1c-103.5 0-187.5-84.1-187.5-187.7 0-103.7 83.9-187.7 187.5-187.7 103.8 0 188 84.1 188 187.7s-84.2 187.7-188 187.7z m0 68.3c141.6 0 256.3-114.7 256.3-256s-114.7-256-256.3-256c-141.3 0-255.7 114.7-255.7 256s114.4 256 255.7 256z"  horiz-adv-x="1024" />

    
    <glyph glyph-name="block" unicode="&#59546;" d="M512 712.1l-228.7-132L512 448l228.7 132.1-228.7 132z m284.1-198.6L554.7 374.1v-293.6L796.2 220l-0.1 293.5z m-568.3 0.1V220l241.5-139.5V374.1L227.8 513.6zM512 810.7l369.5-213.3v-426.7L512-42.700000000000045 142.5 170.70000000000005V597.3L512 810.7z"  horiz-adv-x="1024" />

    
    <glyph glyph-name="undo" unicode="&#59547;" d="M896.5 63.799999999999955c-106.7 149.3-256 217.6-469.3 217.6v-174.9L128.5 405.1l298.7 298.7v-170.7c298.6-42.7 426.6-256 469.3-469.3z"  horiz-adv-x="1024" />

    
    <glyph glyph-name="inlink" unicode="&#59548;" d="M639.8 767.8c23.6 0 42.7-19.1 42.7-42.7v-170.7h-85.3v128H426.4v-128h-85.3V725.1c0 23.6 19.1 42.7 42.7 42.7h256z m128-213.4l60.2-60.2-67.4-67.8h177.9v-85.3h-178l67.4-67.8-60.2-60.2-170.6 170.7 170.7 170.6z m-512 0l170.7-170.7-170.7-170.6-60.2 60.2 67.4 67.8H85.1v85.3H263l-67.4 67.8 60.2 60.2z m298.6 42.7v-426.7h-85.3V597.1h85.3z m-128-384v-128h170.7v128h85.3v-170.7c0-23.6-19.1-42.7-42.7-42.7h-256c-23.6 0-42.7 19.1-42.7 42.7V213.10000000000002h85.4z"  horiz-adv-x="1024" />

    
    <glyph glyph-name="plus-square" unicode="&#59549;" d="M554.9 597.6v-170.7h170.7v-85.3H554.9v-170.7h-85.3V341.6H298.9v85.3h170.7V597.6h85.3z m256 85.3H213.6v-597.3h597.3V682.9z m0 85.3c47.1 0 85.3-38.2 85.3-85.3v-597.3c0-47.1-38.2-85.3-85.3-85.3H213.6c-47.1 0-85.3 38.2-85.3 85.3V682.9c0 47.1 38.2 85.3 85.3 85.3h597.3z"  horiz-adv-x="1024" />

    
    <glyph glyph-name="minus-square" unicode="&#59550;" d="M725.1 426.9v-85.3H298.4v85.3h426.7z m85.3 256H213.1v-597.3h597.3V682.9z m0 85.3c47.1 0 85.3-38.2 85.3-85.3v-597.3c0-47.1-38.2-85.3-85.3-85.3H213.1c-47.1 0-85.3 38.2-85.3 85.3V682.9c0 47.1 38.2 85.3 85.3 85.3h597.3z"  horiz-adv-x="1024" />

    
    <glyph glyph-name="addtag" unicode="&#59551;" d="M555.2 597.3V512h85.3v-85.3h-85.3v-85.3h-85.3v85.3h-85.3V512h85.3v85.3h85.3z m170.6 85.4H299.2V128l213.3 93 213.3-93V682.7z m0 85.3c46.9 0 85.3-38.4 85.3-85.3V0L512.5 128 213.8 0l0.4 682.7c0 46.9 38 85.3 84.9 85.3h426.7z"  horiz-adv-x="1024" />

    
    <glyph glyph-name="flow-siblings" unicode="&#59552;" d="M298.4 597.6h-128v-426.7h128V597.6z m554.7-256v-85.3h85.3V171h-85.3v-85.3h-85.3V171h-85.3v85.3h85.3v85.3h85.3zM383.8 128.20000000000005c0-23.6-19.1-42.7-42.7-42.7H127.8c-23.6 0-42.7 19.1-42.7 42.7v512c0 23.6 19.1 42.7 42.7 42.7h213.3c23.6 0 42.7-19.1 42.7-42.7v-213.3h128V640.2c0 23.6 19.1 42.7 42.7 42.7h256c23.6 0 42.7-19.1 42.7-42.7v-128h-85.3v85.3H597.1v-426.7h85.3v-85.3h-128c-23.6 0-42.7 19.1-42.7 42.7V341.6h-128v-213.4z"  horiz-adv-x="1024" />

    
    <glyph glyph-name="flow-children" unicode="&#59553;" d="M554.4 682.4H213.1v-85.3h341.3v85.3z m42.7 85.4c23.6 0 42.7-19.1 42.7-42.7v-170.7c0-23.6-19.1-42.7-42.7-42.7H298.4v-213.3h85.3v85.3c0 23.6 19.1 42.7 42.7 42.7h426.7c23.6 0 42.7-19.1 42.7-42.7v-128h-85.3V341H469.1v-170.7h85.3V85h-128c-23.6 0-42.7 19.1-42.7 42.7V213h-128c-23.6 0-42.7 19.1-42.7 42.7v256h-42.7c-23.6 0-42.7 19.1-42.7 42.7V725.1c0 23.6 19.1 42.7 42.7 42.7h426.8z m213.3-512v-85.3h85.3v-85.3h-85.3v-85.3h-85.3v85.3h-85.3v85.3h85.3v85.3h85.3z"  horiz-adv-x="1024" />

    
    <glyph glyph-name="non-auth" unicode="&#59540;" d="M665.2 597.3L512 444.2 358.8 597.3l-60.2-60.2L451.8 384 298.7 230.79999999999995l60.2-60.2L512 323.79999999999995l153.2-153.2 60.2 60.2L572.2 384l153.2 153.2-60.2 60.1zM512 853.3l384-170.7v-256c0-236.8-163.8-458.2-384-512-220.2 53.8-384 275.2-384 512v256L512 853.3z"  horiz-adv-x="1024" />

    
    <glyph glyph-name="user-setting" unicode="&#59539;" d="M426.7 725.4c94.3 0 170.7-76.4 170.7-170.7S521 384 426.7 384 256 460.4 256 554.7s76.4 170.7 170.7 170.7zM768 273.1c-33.9 0-61.4-26.8-61.4-59.7s27.5-59.7 61.4-59.7 61.4 26.8 61.4 59.7-27.5 59.7-61.4 59.7z m-341.3 25.6c27.3 0 61.1-3.3 96.7-9.8C516 265 512 239.60000000000002 512 213.39999999999998c0-65.6 24.7-125.4 65.2-170.7H85.3V128c0 113.5 227.4 170.7 341.4 170.7zM803.1 384c3.5 0 6.6-2 7.9-4.8l0.7-2.3 6.7-45.2c8-3.2 15.6-7.2 22.7-11.8l7-4.9 43.7 17.1c3.1 1.1 6.7 0.4 9.2-1.8l1.6-2 35.1-59.1c1.7-3 1.5-6.6-0.4-9.2l-1.7-1.8-37-28.2c0.7-5.5 1.2-10.9 1.2-16.7l-0.4-8.5-0.9-8.2 37-28.2c2.7-2 3.8-5.4 3-8.6l-0.9-2.3-35.1-59.1c-1.7-3-4.9-4.6-8.2-4.3l-2.5 0.6-43.8 17.1c-6.8-5-14.1-9.5-21.8-13.2l-7.9-3.5-6.7-45.2c-0.4-3.3-2.9-5.9-6.1-6.8l-2.5-0.4h-70.2c-3.5 0-6.6 2-7.9 4.8l-0.7 2.3-6.7 45.2c-8 3.2-15.6 7.2-22.7 11.8l-7 4.9-43.7-17.1c-3.1-1.1-6.7-0.4-9.2 1.8l-1.6 2-35.1 59.1c-1.7 3-1.5 6.6 0.4 9.2l1.7 1.8 37 28.2c-0.7 5.5-1.2 11.1-1.2 16.7l0.4 8.4 0.9 8.3-37 28.2c-2.7 2-3.9 5.4-3.1 8.6l1 2.3 35.1 59.1c1.7 3 4.9 4.6 8.2 4.3l2.5-0.6 43.7-17.1c6.8 5 14.1 9.5 21.8 13.2l7.9 3.5 6.7 45.2c0.4 3.3 2.9 5.9 6.1 6.8l2.5 0.4h70.3z"  horiz-adv-x="1024" />

    
    <glyph glyph-name="copy" unicode="&#59538;" d="M832 0H362.7V597.3H832V0z m0 682.7H362.7c-46.9 0-85.3-38.4-85.3-85.3V0c0-46.9 38.4-85.3 85.3-85.3H832c46.9 0 85.3 38.4 85.3 85.3V597.3c0 47-38.4 85.4-85.3 85.4zM704 853.3H192c-46.9 0-85.3-38.4-85.3-85.3v-597.3H192V768h512V853.3z"  horiz-adv-x="1024" />

    
    <glyph glyph-name="bind" unicode="&#59537;" d="M725.3 596.7H554.7v-81.1h170.7c73 0 132.3-59.3 132.3-132.3S798.4 251 725.4 251H554.7v-81h170.7c117.8 0 213.3 95.6 213.3 213.3s-95.6 213.4-213.4 213.4z m-384-256h341.3V426H341.3v-85.3z m-174.9 42.7c0 73 59.3 132.3 132.3 132.3h170.7v81.1H298.7c-117.8 0-213.3-95.6-213.3-213.3S180.9 170 298.7 170h170.7v81.1H298.7c-73 0-132.3 59.3-132.3 132.3z"  horiz-adv-x="1024" />

    
    <glyph glyph-name="location" unicode="&#59534;" d="M213.3 42.700000000000045v-85.3h597.3v85.3H213.3z m213.4 512c0 46.9 38.4 85.3 85.3 85.3s85.3-38.4 85.3-85.3-38-85.3-85.3-85.3c-46.9-0.1-85.3 38.3-85.3 85.3z m341.3 0c0 141.2-114.8 256-256 256s-256-114.8-256-256c0-192 256-469.3 256-469.3s256 277.3 256 469.3z"  horiz-adv-x="1024" />

    
    <glyph glyph-name="transmit" unicode="&#59535;" d="M682.7 213.29999999999995H512v-128L298.7 298.70000000000005 512 512v-128h170.7v-170.7zM512 725.3c23.5 0 42.7-19.2 42.7-42.7S535.5 640 512 640s-42.7 19.2-42.7 42.7 19.2 42.6 42.7 42.6z m298.7 0H632.3c-17.9 49.5-64.9 85.3-120.3 85.3s-102.4-35.8-120.3-85.3H213.3c-46.9 0-85.3-38.4-85.3-85.3v-597.3c0-46.9 38.4-85.3 85.3-85.3h597.3c46.9 0 85.3 38.4 85.3 85.3V640c0.1 46.9-38.3 85.3-85.2 85.3z"  horiz-adv-x="1024" />

    
    <glyph glyph-name="unbind" unicode="&#59536;" d="M300.8 655.5L512 444.3 451.7 384 240.5 595.2l60.3 60.3zM512 685.7c83.3 83.3 218.4 83.3 301.7 0 80.7-80.7 83.2-210.3 7.3-294l-7.3-7.7-90.5-90.5-57.3 57.3 90.5 90.5c51.6 51.6 51.6 135.5 0 187.1-49.6 49.6-129.1 51.5-181 5.7l-6.1-5.7-90.5-90.5-57.3 57.3 90.5 90.5zM300.8 474.5l57.3-57.3-90.5-90.5c-51.6-51.6-51.6-135.5 0-187.1 49.6-49.6 129.1-51.5 181-5.7l6.1 5.7 90.5 90.5 57.3-57.3-90.5-90.5c-83.3-83.3-218.4-83.3-301.7 0-80.7 80.7-83.2 210.3-7.3 294l7.3 7.7 90.5 90.5zM572.3 384l211.2-211.2-60.3-60.3L512 323.70000000000005l60.3 60.3z"  horiz-adv-x="1024" />

    
    <glyph glyph-name="stars" unicode="&#59533;" d="M194.6 729.6l28.8-67.9 73.6-6.2-56-48.5 16.8-72-63.3 38.2-63.2-38.2 16.8 72-55.9 48.4 73.6 6.2 28.8 68zM768 814.9l46-108.6 117.8-10-89.5-77.5 26.9-115.2L768 564.7l-101.3-61.1 26.9 115.2-89.5 77.5 117.8 10L768 814.9zM476.2 601.6l95.9-226.3 245.4-20.8L631.1 193l56-240-210.9 127.4-211-127.3 56 240-186.4 161.4 245.4 20.8 96 226.3z"  horiz-adv-x="1024" />

    
    <glyph glyph-name="modules" unicode="&#59532;" d="M554.7 768v-256H896V768H554.7z m0-768H896V426.7H554.7V0zM128 0h341.3V256H128v-256z m0 341.3h341.3V768H128v-426.7z"  horiz-adv-x="1024" />

    
    <glyph glyph-name="checklist" unicode="&#59529;" d="M707.8 469.3l60.2-60.6-341.3-341.3L256 238.10000000000002l60.2 60.2 110.5-110.1 281.1 281.1zM810.7 512H213.3v-469.3h597.3V512zM341.3 810.7v-85.3h341.3V810.7H768v-85.3h42.7c46.9 0 85.3-38.4 85.3-85.3v-597.3c0-46.9-38.4-85.3-85.3-85.3H213.3c-47.4 0-85.3 38.4-85.3 85.3l0.4 597.3c0 46.9 37.5 85.3 84.9 85.3H256V810.7h85.3z"  horiz-adv-x="1024" />

    
    <glyph glyph-name="sop" unicode="&#59530;" d="M512 103.70000000000005c-73.1 0-146.2 27.4-198 79.1l60.9 73C414.5 219.29999999999995 466.3 195 512 195c54.8 0 85.3 24.3 85.3 60.8 0 39.6-33.5 51.7-82.3 73l-73.1 30.4c-54.8 21.3-109.7 66.9-109.7 146 0 88.2 76.2 155.2 185.9 155.2 64 0 124.9-24.3 170.6-70l-54.8-66.9c-33.5 27.4-70.1 45.6-115.8 45.6-48.7 0-79.2-21.3-79.2-57.8 0-39.6 39.6-51.7 85.3-70l70.1-30.4c67-27.4 109.7-70 109.7-146 6-85.2-67.1-161.2-192-161.2z m0 705.8c-234.6 0-426.5-191.7-426.5-426s191.9-426 426.5-426 426.6 191.7 426.6 426c-0.1 234.4-192 426-426.6 426z"  horiz-adv-x="1024" />

    
    <glyph glyph-name="module" unicode="&#59531;" d="M668.4 538.3l42.7-73.9-156.4-90.3v-160.8h-85.3V374.1L313 464.4l42.7 73.9L512 448l156.4 90.3zM512 712.1l-284.2-164V220L512 55.89999999999998 796.2 220V548.1L512 712.1z m0 98.6l369.5-213.3v-426.7L512-42.700000000000045 142.5 170.70000000000005V597.3L512 810.7z"  horiz-adv-x="1024" />

    
    <glyph glyph-name="time" unicode="&#59528;" d="M533.3 554.7v-213.3L715.9 233l30.7 51.6-149.3 88.7V554.7h-64zM576 768c-212.1 0-384-171.9-384-384H64l166-166 3-6 172.3 172h-128c0 165.1 133.5 298.7 298.7 298.7S874.7 549.1 874.7 384 741.1 85.29999999999995 576 85.29999999999995c-82.3 0-157 33.7-210.8 87.9l-60.6-60.6C374.2 43.10000000000002 469.8 0 576 0c212.1 0 384 171.9 384 384S788.1 768 576 768z"  horiz-adv-x="1024" />

    
    <glyph glyph-name="info" unicode="&#59527;" d="M554.7 127.5h-85.3v-85.3h85.3v85.3z m0 597.3h-85.3v-512h85.3v512z"  horiz-adv-x="1024" />

    
    <glyph glyph-name="center" unicode="&#59526;" d="M512 512.5c-70.8 0-128-57.2-128-128s57.2-128 128-128 128 57.2 128 128-57.2 128-128 128z m298.7-426.7H640v-85.3h170.7c46.9 0 85.3 38.4 85.3 85.3V256.5h-85.3v-170.7z m0 682.7H640v-85.3h170.7v-170.7H896V683.2c0 46.9-38.4 85.3-85.3 85.3z m-597.4-85.3H384v85.3H213.3c-46.9 0-85.3-38.4-85.3-85.3v-170.7h85.3V683.2z m0-426.7H128v-170.7c0-46.9 38.4-85.3 85.3-85.3H384v85.3H213.3V256.5z"  horiz-adv-x="1024" />

    
    <glyph glyph-name="auto" unicode="&#59525;" d="M298.2 0.5L127.5 128.29999999999995l170.7 128.2v-85.3h426.7c45 0 81.8 34.8 85.1 79l0.2 6.4c0 45-34.8 81.8-79 85.1l-6.4 0.2H298.2c-94.3 0-170.7 76.4-170.7 170.7s76.4 170.7 170.7 170.7h426.7v85.3l170.7-128-170.7-128v85.3H298.2c-45 0-81.8-34.8-85.1-79l-0.2-6.4c0-45 34.8-81.8 79-85.1l6.4-0.2H725c94.3 0 170.7-76.4 170.7-170.7S819.3 85.79999999999995 725 85.79999999999995H298.2v-85.3z"  horiz-adv-x="1024" />

    
    <glyph glyph-name="manager" unicode="&#59524;" d="M512 644.8c-49.5 0-89.6-40.1-89.6-89.6s40.1-89.6 89.6-89.6 89.6 40.1 89.6 89.6-40.1 89.6-89.6 89.6z m0 81c94.3 0 170.7-76.4 170.7-170.7S606.3 384.5 512 384.5s-170.7 76.4-170.7 170.7S417.7 725.8 512 725.8z m19.6-384l23-253.9c0.3-2.5-0.5-5-2.2-6.8l-34.8-35.6c-3.1-3.1-8-3.1-11.1 0l-34.8 35.6c-1.7 1.8-2.6 4.3-2.2 6.8l23 253.9h39.1z m65.7-7.8c112.2-18.6 248-70.5 255.7-155.3l0.3-7.6v-128h-256v81.1h174.9v46.9c0 21.1-80 63.2-174.9 81.2V334z m-170.6 0v-81.7c-91.6-17.3-169.2-57-174.7-78.8l-0.3-2.3v-46.9h174.9v-81.1h-256v128c0.1 89.2 140.6 143.6 256.1 162.8z"  horiz-adv-x="1024" />

    
    <glyph glyph-name="changing" unicode="&#59523;" d="M511.5 554.7v-181.3l149.3-88.7-30.7-51.7-182.6 108.3V554.7h64z m298.7-213.4v-256h-512v-128L127.5 128l170.7 170.7v-128h426.7V341.29999999999995h85.3z m-512 256h426.7v-128L895.5 640 724.8 810.7v-128h-512v-256h85.3V597.3z"  horiz-adv-x="1024" />

    
    <glyph glyph-name="addchange" unicode="&#59522;" d="M537.6 512v-102.4H640v-51.2H537.6V256h-51.2V358.4H384v51.2h102.4V512h51.2z m273.1-170.7v-256h-512v-128L128 128l170.7 170.7v-128h426.7V341.29999999999995h85.3z m-512 256h426.7v-128L896 640 725.3 810.7v-128h-512v-256h85.3V597.3z"  horiz-adv-x="1024" />

    
    <glyph glyph-name="change" unicode="&#59521;" d="M725.8 170.70000000000005H299.2v128L128.5 128l170.7-170.7v128h512v256h-85.3v-170.6zM299.2 597.3h426.7v-128L896.5 640 725.8 810.7v-128h-512v-256h85.3V597.3z"  horiz-adv-x="1024" />

    
    <glyph glyph-name="tree" unicode="&#59520;" d="M341.3 725.8H170.7v-85.3h170.7v85.3z m512-256H682.7v-85.3h170.7v85.3z m0-341.3H682.7v-85.3h170.7v85.3z m-640-85.3v512h-128v256h341.3v-256h-128v-85.3h298.7v85.3h341.3v-256H597.3v85.3H298.7v-256h298.7v85.3h341.3v-256H597.3v85.3h-384z"  horiz-adv-x="1024" />

    
    <glyph glyph-name="action" unicode="&#59517;" d="M725.6 810.9L554.9 469.6h170.7l-298.7-512v384h-128V810.9h426.7z"  horiz-adv-x="1024" />

    
    <glyph glyph-name="type" unicode="&#59518;" d="M725.8 683.2c-47.1 0-85.3-38.2-85.3-85.3v-85.3h85.3c47.1 0 85.3 38.2 85.3 85.3s-38.1 85.3-85.3 85.3z m-426.6 0c-47.1 0-85.3-38.2-85.3-85.3s38.2-85.3 85.3-85.3h85.3v85.3c0 47.1-38.2 85.3-85.3 85.3z m426.6 85.3c94.3 0 170.7-76.4 170.7-170.7s-76.4-170.7-170.7-170.7H555.2V597.8l0.2 8.5c4.4 90.4 79 162.2 170.4 162.2z m-426.6 0c91.4 0 166-71.8 170.5-162.1l0.2-8.5v-170.7H299.2c-94.3 0-170.7 76.4-170.7 170.7s76.4 170.6 170.7 170.6z m426.6-512h-85.3v-85.3c0-47.1 38.2-85.3 85.3-85.3 47.1 0 85.3 38.2 85.3 85.3 0.1 47.1-38.1 85.3-85.3 85.3z m-341.3 0h-85.3c-47.1 0-85.3-38.2-85.3-85.3 0-47.1 38.2-85.3 85.3-85.3s85.3 38.2 85.3 85.3v85.3z m341.3 85.3c94.3 0 170.7-76.4 170.7-170.7s-76.4-170.7-170.7-170.7c-91.4 0-166 71.8-170.5 162.1l-0.2 8.5V341.79999999999995h170.7z m-256 0v-170.7l-0.2-8.5c-4.4-90.3-79.1-162.1-170.5-162.1-94.3 0-170.7 76.4-170.7 170.7s76.4 170.7 170.7 170.7h170.7z"  horiz-adv-x="1024" />

    
    <glyph glyph-name="drag" unicode="&#59519;" d="M555.2 682.7c23.6 0 42.7-19.1 42.7-42.7s-19.1-42.7-42.7-42.7h-85.3c-23.6 0-42.7 19.1-42.7 42.7s19.1 42.7 42.7 42.7h85.3z m0-170.7c23.6 0 42.7-19.1 42.7-42.7s-19.1-42.7-42.7-42.7h-85.3c-23.6 0-42.7 19.1-42.7 42.7s19.1 42.7 42.7 42.7h85.3z m0-170.7c23.6 0 42.7-19.1 42.7-42.7s-19.1-42.7-42.7-42.7h-85.3c-23.6 0-42.7 19.1-42.7 42.7s19.1 42.7 42.7 42.7h85.3z m0-170.6c23.6 0 42.7-19.1 42.7-42.7s-19.1-42.7-42.7-42.7h-85.3c-23.6 0-42.7 19.1-42.7 42.7s19.1 42.7 42.7 42.7h85.3z"  horiz-adv-x="1024" />

    
    <glyph glyph-name="question" unicode="&#59511;" d="M512 772.32355555c-134.144 0-242.688-108.65777778-242.688-242.688H366.36444445c0 1.93422222 0.22755555 3.75466667 0.22755555 5.6888889-0.22755555 91.36355555 78.62044445 139.94666667 145.408 139.94666666s145.63555555-48.58311111 145.63555555-145.63555556-194.21866667-142.56355555-194.21866666-339.85422222h97.05244444c0 136.53333333 194.21866667 188.07466667 194.21866667 339.85422222 0 134.144-108.544 242.688-242.688 242.688z m-48.58311111-776.6471111h97.05244444V92.72888889000001h-97.05244444v-97.05244444z"  horiz-adv-x="1024" />

    
    <glyph glyph-name="integration" unicode="&#59512;" d="M725.3 170.70000000000005H298.7V597.3h426.7v-426.6z m170.7 256V512h-85.3v85.3c0 46.9-38.4 85.3-85.3 85.3H640V768h-85.3v-85.3h-85.3V768H384v-85.3h-85.3c-46.9 0-85.3-38.4-85.3-85.3V512H128v-85.3h85.3v-85.3H128V256h85.3v-85.3c0-46.9 38.4-85.3 85.3-85.3H384V0h85.3v85.3h85.3V0H640v85.3h85.3c46.9 0 85.3 38.4 85.3 85.3V256H896v85.3h-85.3v85.3H896z m-341.3-85.4h-85.3v85.3h85.3v-85.3zM640 512H384v-256h256V512z"  horiz-adv-x="1024" />

    
    <glyph glyph-name="restful" unicode="&#59515;" d="M768 512.4v-234.7L618.7 128v-128H405.3V128L256 278.20000000000005V512.4c0 42.7 42.7 85.3 84.9 84.9h0.4V768h85.3v-170.7h170.7V768h85.3l0.4-170.7c42.3 0.5 85-42.2 85-84.9z"  horiz-adv-x="1024" />

    
    <glyph glyph-name="urgency" unicode="&#59516;" d="M566.7 661.1c1.7 0 2.8-0.6 3.4-1.7 1.1-1.1 1.7-2.8 1.7-4.6L549 444.3h113.8c2.1 0 4-1.1 5.1-2.8 0.6-1.7 0.6-4-0.6-5.7l-228.1-326c-1.1-1.1-2.8-2.3-4.5-2.3h-4c-1.7 0-3.4 0.6-4.6 1.7-1.1 1.1-1.1 2.8-1.1 4.6l30.2 214.5H343.1c-2.3 0-4 1.1-5.1 2.8-0.6 1.7-0.6 4 0.6 5.7l217.3 322c1.1 1.1 2.8 2.3 4.5 2.3h6.3zM512 732.3c-192.4 0-348.3-155.9-348.3-348.3S319.6 35.700000000000045 512 35.700000000000045 860.3 191.60000000000002 860.3 384 704.4 732.3 512 732.3z m0 78.3c235.6 0 426.6-191 426.6-426.6S747.6-42.60000000000002 512-42.60000000000002 85.4 148.39999999999998 85.4 384 276.4 810.6 512 810.6z"  horiz-adv-x="1024" />

    
    <glyph glyph-name="lightning" unicode="&#59171;" d="M773 485.25c3.75 0 6.75-1.5 8.25-4.5 0.75-3 0.75-6.75-0.75-9.75L394.25-81c-2.25-2.25-4.5-3.75-7.5-3.75h-6.75c-3 0-6 0.75-7.5 3-2.25 2.25-2.25 4.5-2.25 7.5l51 363H230.75c-3.75 0-6.75 2.25-8.25 4.5-0.75 3-0.75 6.75 0.75 9.75L591.5 848.25c2.25 2.25 4.5 3.75 7.5 3.75H609.5c3 0 4.5-0.75 6-3 2.25-2.25 3-4.5 3-7.5l-38.25-356.25h192.75z"  horiz-adv-x="1024" />

    
    <glyph glyph-name="filter-o" unicode="&#59514;" d="M213.9 725.8L422 323.1v-150l171.8-129.9v280l217.4 402.7H213.9z m371.9-767.6c-13.1 1.2-25.8 5.5-37 12.4l-6.5 4.5L370.5 105a85.583 85.583 0 0 0-33.6 60.8l-0.3 7.2V302.4L138 686.7c-12.5 24.3-12.6 52.9-0.6 77l3.6 6.5c14.3 23.5 38.9 38.5 66.1 40.7l6.8 0.3h597.3c30 0 57.9-15.8 73.3-41.6 14.1-23.6 15.8-52.5 5-77.5l-3.3-6.7L679 301.6v-258.4c0-30-15.8-57.7-41.5-73.2l-6.1-3.4c-9.4-4.6-19.6-7.5-29.9-8.4l-7.8-0.4-7.9 0.4z"  horiz-adv-x="1024" />

    
    <glyph glyph-name="storage" unicode="&#59453;" d="M170.6 426.7h85.3v-85.3h-85.3v85.3z m-85.3-128h853.3V469.3H85.3v-170.6z m170.6 298.6h-85.3v85.3h85.3v-85.3z m-170.6 128v-170.7h853.3V725.3H85.3z m85.3-554.6h85.3v-85.3h-85.3v85.3z m-85.3-128h853.3V213.29999999999995H85.3v-170.6z"  horiz-adv-x="1024" />

    
    <glyph glyph-name="cloud" unicode="&#59513;" d="M810.7 128H256c-94.3 0-170.7 76.4-170.7 170.7S161.7 469.3 256 469.3h30.3C314.5 567.9 404.5 640 512 640c129.7 0 234.7-105 234.7-234.7V384h64c70.8 0 128-57.2 128-128s-57.2-128-128-128z m14.9 339.6c-29 147.2-158.3 257.7-313.6 257.7-123.3 0-230.4-70-283.7-172.4C99.8 539.3 0 430.5 0 298.70000000000005c0-141.2 114.8-256 256-256h554.7c117.8 0 213.3 95.6 213.3 213.3 0 112.6-87.5 203.9-198.4 211.6z"  horiz-adv-x="1024" />

    
    <glyph glyph-name="attribute" unicode="&#59510;" d="M512.5 35.200000000000045c-192.4 0-348.3 155.9-348.3 348.3s155.9 348.3 348.3 348.3 348.3-155.9 348.3-348.3-155.9-348.3-348.3-348.3z m0 774.9c-235.6 0-426.6-191-426.6-426.6s191-426.6 426.6-426.6 426.6 191 426.6 426.6-191 426.6-426.6 426.6zM528.9 122.10000000000002c-37.1-9.3-88.4-8.4-114 1.9-25.6 10.3-35 47.7-20.7 83.2l63.9 159.3c14.2 35.5-4.2 72.8-41.1 83l-12.2 3.4c-36.8 10.2-36.1 23.6 1.6 29.7l36.6 6c37.7 6.1 89.5 2.7 115.2-7.6 25.6-10.3 34.9-47.7 20.6-83.1l-59.6-147.6c-14.3-35.4 3.6-73.4 39.8-84.3 36.2-10.9 35.5-27.5-1.6-36.7l-28.5-7.2z m-35.8 462.6c0-27.7 22.5-50.2 50.2-50.2 27.7 0 50.2 22.5 50.2 50.2 0 27.7-22.5 50.2-50.2 50.2-27.7 0-50.2-22.5-50.2-50.2z"  horiz-adv-x="1024" />

    
    <glyph glyph-name="chart-table" unicode="&#59509;" d="M128 483.6h768v-85.3H128v85.3z m0-199.2h768v-85.3H128v85.3zM113.8 711.1v-654.2h796.4V711.1H113.8z m28.4-625.8v512h227.6v-512H142.2z m256 0v512h256v-512h-256z m483.6 0H682.7v512h199.1v-512z"  horiz-adv-x="1024" />

    
    <glyph glyph-name="chart-number" unicode="&#59505;" d="M338.2 83.89999999999998h569.7v86.7H338.2v-86.7z m-199.4 0h142.4L210 228.5l-71.2-144.6zM588.9 581.2c0 26-11.4 52-28.5 72.3-19.9 20.2-42.7 28.9-71.2 28.9-25.6 0-51.3-11.6-71.2-28.9-19.9-17.3-28.5-43.4-28.5-72.3h57c0 11.6 5.7 23.1 11.4 31.8 17.1 17.3 42.7 17.3 59.8 0 8.5-8.7 11.4-20.2 11.4-31.8 0-11.6-5.7-23.1-14.2-31.8L395.2 399c-5.7-8.7-8.5-20.2-2.8-31.8 5.7-11.6 14.2-17.3 25.6-17.3h170.9v57.8H477.8l82.6 101.2c17.1 20.2 28.5 46.3 28.5 72.3zM252.8 682.4c-8.5 2.9-19.9 2.9-28.5-5.8l-108.2-86.7 34.2-43.4 59.8 49.1v-242.8h57V653.4c2.8 11.6-2.9 23.2-14.3 29z m621-101.2c0 54.9-45.6 101.2-99.7 101.2s-99.7-46.3-99.7-101.2h57c0 23.1 19.9 43.4 42.7 43.4 22.8 0 42.7-20.2 42.7-43.4 0-17.3-8.5-31.8-22.8-37.6-8.5-5.8-17.1-14.5-17.1-26 0-11.6 5.7-20.2 17.1-26 14.2-8.7 22.8-23.1 22.8-37.6 0-23.1-19.9-43.4-42.7-43.4-22.8 0-42.7 20.2-42.7 43.4h-57c0-54.9 45.6-101.2 99.7-101.2s99.7 46.3 99.7 101.2c0 23.1-8.5 46.3-22.8 63.6 14.2 17.3 22.8 40.4 22.8 63.6z"  horiz-adv-x="1024" />

    
    <glyph glyph-name="chart-pie" unicode="&#59506;" d="M850 344.6c-13.6-181.9-165.6-325.8-350.3-325.8-195.5 0-353 157.5-353 353 0 184.6 143.9 336.7 325.8 350.3v-377.4H850zM877.2 398.9H526.9V749.2c187.4-10.9 339.4-162.9 350.3-350.3z"  horiz-adv-x="1024" />

    
    <glyph glyph-name="chart-line" unicode="&#59507;" d="M497.8 99.10000000000002L304.1 238 170.2 130.29999999999995l-54.1 68 182.3 147.4 205.1-144.6 358.9 212.6L908 340 497.8 99.10000000000002zM497.8 354.20000000000005L304.1 493.1 170.2 385.4l-54.1 68 182.3 147.4 205.1-144.6 358.9 212.6 45.6-73.7-410.2-240.9z"  horiz-adv-x="1024" />

    
    <glyph glyph-name="chart-bar" unicode="&#59508;" d="M146.5 370.1H287V65H146.5V370.1zM343.3 703h140.6v-638H343.3V703zM540.1 481.1h140.6V65H540.1V481.1zM736.9 286.9h140.6V65H736.9V286.9z"  horiz-adv-x="1024" />

    
    <glyph glyph-name="chart-area" unicode="&#59498;" d="M85.5 70.89999999999998S202.1 700 352.7 700c125.1 0 119.4-228.8 213.2-228.8 93.8 0 76.8 117.2 176.3 117.2 156.4 0 196.2-514.7 196.2-514.7H85.5v-2.8zM85.5 70.89999999999998s116.6 311.7 267.2 311.7c125.1 0 119.4-114.4 213.2-114.4 93.8 0 76.8 57.2 176.3 57.2 156.4 0 196.2-257.4 196.2-257.4H85.5v2.9z"  horiz-adv-x="1024" />

    
    <glyph glyph-name="filter" unicode="&#59471;" d="M593.2 0c-9.1 0-18.2 2.9-25.7 8.7L395.7 138.60000000000002c-10.7 8.1-16.9 20.7-16.9 34V312.29999999999995L175.4 705.7c-6.8 13.2-6.3 29.1 1.5 41.8 7.7 12.7 21.5 20.5 36.4 20.5h597.3c15 0 28.9-7.9 36.7-20.8 7.7-12.9 8-28.9 0.9-42.1L635.9 311.9v-269.2c0-16.2-9.2-31-23.7-38.2-6-3-12.5-4.5-19-4.5"  horiz-adv-x="1024" />

    
    <glyph glyph-name="tabforword" unicode="&#59403;" d="M406.5 783l212.1-399.5L406.5-16V114.5l142.8 268.9-142.8 269V783z"  horiz-adv-x="1024" />

    
    <glyph glyph-name="forbid" unicode="&#59411;" d="M781.7 174.39999999999998L303.4 652.7c57.6 45.2 130.1 72.1 209.1 72.1 188.6 0 341.3-152.7 341.3-341.3 0-78.9-26.8-151.5-72.1-209.1zM512.5 42.200000000000045c-188.6 0-341.3 152.7-341.3 341.3 0 78.9 26.9 151.5 72.1 209.1l478.3-478.3C664 69 591.4 42.200000000000045 512.5 42.200000000000045z m0 768C277 810.2 85.8 619 85.8 383.5S277-43.200000000000045 512.5-43.200000000000045 939.2 148 939.2 383.5 748 810.2 512.5 810.2z"  horiz-adv-x="1024" />

    
    <glyph glyph-name="unsend" unicode="&#59470;" d="M957.6 828.6L746 323.5l-65.2 65.2 117.6 280.8L517.5 552l-65.2 65.2L957.6 828.6zM389.3 498.4l-217-90.8 262.6-101.7 101.3-262.4 90.9 217.1-237.8 237.8z m-199 295.5l724.1-724.1-48.3-48.3-173.8 173.8-107.6-256.9h-99.5L368.9 240 67.4 356.70000000000005v99.4l256.7 107.4L142 745.6l48.3 48.3z"  horiz-adv-x="1024" />

    
    <glyph glyph-name="monitor" unicode="&#59452;" d="M421.4 724.9c37.5-3.7 67-30.2 75.1-67.5L611 128.70000000000005 728.9 401c6.8 15.6 22.1 25.7 39.2 25.7l170.7 0.1v-85.3l-142.8-0.2-106.9-247c-14-32.1-43.9-51.7-77.7-51.7-2.9 0-5.8 0.1-8.7 0.4-37.5 3.7-67 30.2-75.1 67.5L413.1 639.3 295.2 367c-6.8-15.6-22.2-25.7-39.2-25.7H128l-0.7 0.1h-42v85.3l142.7-0.1 106.9 247c15.2 34.8 48.5 55.1 86.5 51.3z"  horiz-adv-x="1024" />

    
    <glyph glyph-name="task-cancel" unicode="&#59459;" d="M512 725.3c-23.5 0-42.7-19.2-42.7-42.7S488.5 640 512 640s42.7 19.2 42.7 42.7-19.2 42.6-42.7 42.6z m93.4-256L501.3 365.20000000000005 397.2 469.3 352 424.1 456.1 320 352 215.89999999999998l45.2-45.2 104.1 104.1 104.1-104.1 45.2 45.2-104 104.1 104.1 104.1-45.3 45.2zM512 810.7c55.5 0 102.4-35.8 120.3-85.3h178.3c46.9 0 85.3-38.4 85.3-85.3v-597.3c0-46.9-38.4-85.3-85.3-85.3H213.3c-46.9 0-85.3 38.4-85.3 85.3V640c0 46.9 38.4 85.3 85.3 85.3h178.3c18 49.5 64.9 85.4 120.4 85.4z"  horiz-adv-x="1024" />

    
    <glyph glyph-name="sort-right" unicode="&#59447;" d="M597.3 730.9l306-278.2-57.3-63.2L682.7 538v-500.9h-85.3V730.9z"  horiz-adv-x="1024" />

    
    <glyph glyph-name="sort-left" unicode="&#59441;" d="M426.7 730.9v-693.8l-306 278.2 57.4 63.1L341.3 230V730.9h85.4z"  horiz-adv-x="1024" />

    
    <glyph glyph-name="sort-all" unicode="&#59438;" d="M597.3 730.9l306-278.2-57.3-63.2L682.7 538v-500.9h-85.3V730.9z m-170.6 0v-693.8l-306 278.2 57.4 63.1L341.3 230V730.9h85.4z"  horiz-adv-x="1024" />

    
    <glyph glyph-name="phone" unicode="&#59436;" d="M704 128H320V725.3h384V128zM512-42.700000000000045c-35.4 0-64 28.6-64 64s28.6 64 64 64 64-28.6 64-64-28.6-64-64-64z m170.7 896H341.3c-58.9 0-106.7-47.8-106.7-106.7v-725.3c0-58.9 47.8-106.7 106.7-106.7h341.3c58.9 0 106.7 47.8 106.7 106.7V746.7c0 58.8-47.8 106.6-106.6 106.6z"  horiz-adv-x="1024" />

    
    <glyph glyph-name="desktop" unicode="&#59437;" d="M896 298.7H128V725.3h768v-426.6z m0 512H128c-46.9 0-85.3-38.4-85.3-85.3v-512c0-46.9 38.4-85.3 85.3-85.3h298.7l-85.3-128v-42.7h341.3V0l-85.3 128H896c46.9 0 85.3 38.4 85.3 85.3v512c0 47-38.4 85.4-85.3 85.4z"  horiz-adv-x="1024" />

    
    <glyph glyph-name="timer" unicode="&#59491;" d="M512 39.700000000000045c-165.1 0-298.7 133.5-298.7 298.7S346.8 637 512 637s298.7-133.5 298.7-298.7S677.1 39.700000000000045 512 39.700000000000045z m0 682.6c-212.1 0-384-171.9-384-384s171.5-384 384-384c212.1 0 384 171.9 384 384s-172 384-384 384z m21.3-170.6h-64v-256L672 174.10000000000002l32 52.5-170.7 101.1v224zM336.2 748.4l-54.6 65.3L85.3 649.4l55-65.3 195.9 164.3zM938.6 649L742.3 813.7l-55-65.3 196.3-164.7 55 65.3z"  horiz-adv-x="1024" />

    
    <glyph glyph-name="send" unicode="&#59406;" d="M574.2 0h-41.8L419.8 291.79999999999995 127.9 404.9v41.8L896 768 574.2 0z"  horiz-adv-x="1024" />

    
    <glyph glyph-name="task-ok" unicode="&#59408;" d="M426.6 128L255.9 298.70000000000005l60.2 60.2 110.5-110.1L707.8 530l60.2-60.6L426.6 128z m85.3 597.3c23.5 0 42.7-19.2 42.7-42.7S535.4 640 511.9 640c-23.5 0-42.7 19.2-42.7 42.7s19.3 42.6 42.7 42.6z m298.7 0H632.3c-17.9 49.5-64.9 85.3-120.3 85.3s-102.4-35.8-120.3-85.3H213.3c-46.9 0-85.3-38.4-85.3-85.3v-597.3c0-46.9 38.4-85.3 85.3-85.3h597.3c46.9 0 85.3 38.4 85.3 85.3V640c0.1 46.9-38.4 85.3-85.3 85.3z"  horiz-adv-x="1024" />

    
    <glyph glyph-name="badge" unicode="&#59502;" d="M512 597.3l-41.4-128H341.3l105.4-75.1L406.6 270 512 346.9l105.4-76.8-40.1 124.2 105.4 75.1H553.4L512 597.3zM725.3 768c46.9 0 85.3-38.4 85.3-85.3V0L512 128 213.3 0l0.4 682.7c0 46.9 38 85.3 84.9 85.3h426.7z"  horiz-adv-x="1024" />

    
    <glyph glyph-name="topo" unicode="&#59503;" d="M725.3 384H298.7v-170.7h128V0H85.3V213.29999999999995h128v256h256v85.3h-128V768h341.3v-213.3h-128v-85.3h256v-256h128V0H597.3V213.29999999999995h128V384z"  horiz-adv-x="1024" />

    
    <glyph glyph-name="orderlist" unicode="&#59504;" d="M320 341.29999999999995h597.3v85.3H320v-85.3z m0-256h597.3v85.3H320v-85.3z m0 597.4v-85.3h597.3v85.3H320z m-213.4-256h76.8l-76.8-89.6v-38.4h128v42.7h-76.8l76.8 89.6v38.4h-128v-42.7z m42.7 128H192V725.3h-85.3v-42.7h42.7v-127.9z m-42.7-384h85.3v-21.3h-42.7v-42.7h42.7v-21.3h-85.3v-42.7h128V213.29999999999995h-128v-42.6z"  horiz-adv-x="1024" />

    
    <glyph glyph-name="callcenter" unicode="&#59501;" d="M896 405.3v-298.7c0-70.8-57.2-128-128-128H640V320h170.7v85.3C810.7 570.5 677.1 704 512 704S213.3 570.5 213.3 405.3V320H384v-341.3H256c-70.8 0-128 57.2-128 128V405.3c0 212.1 171.9 384 384 384s384-171.9 384-384z"  horiz-adv-x="1024" />

    
    <glyph glyph-name="formlist" unicode="&#59493;" d="M554.7 512V746.7L789.3 512H554.7z m128-213.3H341.3V384h341.3v-85.3z m0-170.7H341.3v85.3h341.3V128zM597.3 810.7H256c-46.9 0-84.9-38.4-84.9-85.3l-0.4-682.7c0-46.9 38-85.3 84.9-85.3H768c46.9 0 85.3 38.4 85.3 85.3v512l-256 256z"  horiz-adv-x="1024" />

    
    <glyph glyph-name="heart-s" unicode="&#59494;" d="M512-7.5l-61.9 56.3C230.4 248.10000000000002 85.3 379.5 85.3 540.8c0 131.4 103.3 234.7 234.7 234.7 74.2 0 145.5-34.6 192-89.2 46.5 54.6 117.8 89.2 192 89.2 131.4 0 234.7-103.3 234.7-234.7 0-161.3-145.1-292.7-364.8-492.4L512-7.5z"  horiz-adv-x="1024" />

    
    <glyph glyph-name="celve" unicode="&#59495;" d="M633.5 337.1l-36.3-25.6v-98.1H426.6v98.1l-36.3 25.6c-57.6 40.1-91.7 105.4-91.7 174.9 0 117.8 95.6 213.3 213.3 213.3S725.3 629.8 725.3 512c0-69.5-34.1-134.8-91.8-174.9zM512 810.7c-164.7 0-298.7-134-298.7-298.7 0-101.5 50.8-190.7 128-244.9v-96.4c0-23.5 19.2-42.7 42.7-42.7h256c23.5 0 42.7 19.2 42.7 42.7v96.4c77.2 54.2 128 143.4 128 244.9C810.6 676.7 676.6 810.7 512 810.7zM384 0c0-23.5 19.2-42.7 42.7-42.7h170.7c23.5 0 42.7 19.2 42.7 42.7v42.7H384V0z"  horiz-adv-x="1024" />

    
    <glyph glyph-name="list" unicode="&#59496;" d="M309.3 682.7v-85.3h597.3v85.3H309.3z m0-341.4h597.3v85.3H309.3v-85.3z m0-256h597.3v85.3H309.3v-85.3zM181.3 192c-35.4 0-64-29-64-64s29-64 64-64 64 29 64 64-28.6 64-64 64z m0 512c-35.4 0-64-28.6-64-64s28.6-64 64-64 64 28.6 64 64-28.6 64-64 64z m0-256c-35.4 0-64-28.6-64-64s28.6-64 64-64 64 28.6 64 64-28.6 64-64 64z"  horiz-adv-x="1024" />

    
    <glyph glyph-name="task" unicode="&#59497;" d="M725.3 469.3H298.6v85.3h426.7v-85.3z m0-170.6H298.6V384h426.7v-85.3zM597.3 128H298.6v85.3h298.7V128zM512 725.3c23.5 0 42.7-19.2 42.7-42.7S535.4 640 512 640s-42.7 19.2-42.7 42.7 19.2 42.6 42.7 42.6z m298.6 0H632.3c-17.9 49.5-64.9 85.3-120.3 85.3s-102.4-35.8-120.3-85.3H213.3c-46.9 0-85.3-38.4-85.3-85.3v-597.3c0-46.9 38.4-85.3 85.3-85.3h597.3c46.9 0 85.3 38.4 85.3 85.3V640c0.1 46.9-38.4 85.3-85.3 85.3z"  horiz-adv-x="1024" />

    
    <glyph glyph-name="sla" unicode="&#59499;" d="M512 42.700000000000045c-188.6 0-341.3 152.7-341.3 341.3S323.4 725.3 512 725.3 853.3 572.6 853.3 384 700.5 42.700000000000045 512 42.700000000000045z m-0.5 768C276 810.7 85.3 619.5 85.3 384S276-42.700000000000045 511.5-42.700000000000045c235.9 0 427.1 191.1 427.1 426.7S747.5 810.7 511.5 810.7zM533.3 373.29999999999995l192-113.9-32-52.5-224 134.4v256h64v-224z"  horiz-adv-x="1024" />

    
    <glyph glyph-name="node" unicode="&#59500;" d="M892.5 83.60000000000002c0-68.7-55.9-124.6-124.6-124.6s-124.6 55.9-124.6 124.6c0 9.4 1.3 18.8 3.4 27.7L343 288.9c-23-21.3-53.3-34.6-87-34.6-70.8 0-128 57.2-128 128s57.2 128 128 128c33.7 0 64-13.2 87-34.6l300.8 175.4c-2.1 9.8-3.8 19.6-3.8 29.9 0 70.8 57.2 128 128 128s128-57.2 128-128-57.2-128-128-128c-33.7 0-64 13.2-87 34.6L380.1 412.2c2.1-9.8 3.8-19.6 3.8-29.9s-1.7-20.1-3.8-29.9l304.2-177.1c22.2 20.1 51.2 32.9 83.6 32.9 68.7 0 124.6-55.9 124.6-124.6z"  horiz-adv-x="1024" />

    
    <glyph glyph-name="shunt" unicode="&#59486;" d="M896 213.29999999999995V0H682.6V130.10000000000002L512 309.29999999999995 341.3 130.10000000000002V0H127.9V213.29999999999995h170.7L469.3 384V519.7C419.8 537.6 384 584.5 384 640c0 70.8 57.2 128 128 128s128-57.2 128-128c0-55.5-35.8-102.4-85.3-120.3V384l170.7-170.7H896z"  horiz-adv-x="1024" />

    
    <glyph glyph-name="blocklist" unicode="&#59487;" d="M810.6 682.7H640V512h170.7V682.7z m-426.6 0H213.3V512H384V682.7zM896 768v-341.3H554.6V768H896z m-426.7 0v-341.3H127.9V768h341.4z m341.3-512H640v-170.7h170.7V256zM384 256H213.3v-170.7H384V256z m512 85.3V0H554.6V341.29999999999995H896z m-426.7 0V0H127.9V341.29999999999995h341.4z"  horiz-adv-x="1024" />

    
    <glyph glyph-name="connector" unicode="&#59488;" d="M725.3 213.29999999999995c0-55.5 35.8-102.4 85.3-120.3v-178.3H896V93c49.5 17.5 85.3 64.4 85.3 120.3v85.3h-256v-85.3zM554.6 810.7c0 23.5-19.2 42.7-42.7 42.7s-42.7-19.2-42.7-42.7V640H384v-256h256V640h-85.3V810.7zM896 640V810.7c0 23.5-19.2 42.7-42.7 42.7s-42.7-19.2-42.7-42.7V640h-85.3v-256h256V640H896zM42.6 213.29999999999995c0-55.5 35.8-102.4 85.3-120.3v-178.3h85.3V93c49.5 17.9 85.3 64.9 85.3 120.3v85.3h-256v-85.3z m341.4 0c0-55.5 35.8-102.4 85.3-120.3v-178.3h85.3V93c49.5 17.5 85.3 64.4 85.3 120.3v85.3H384v-85.3zM213.3 810.7c0 23.5-19.2 42.7-42.7 42.7s-42.7-19.2-42.7-42.7V640H42.6v-256h256V640h-85.3V810.7z"  horiz-adv-x="1024" />

    
    <glyph glyph-name="permission" unicode="&#59489;" d="M512 533.3c35.3 0 64-28.7 64-64s-28.7-64-64-64-64 28.7-64 64 28.6 64 64 64z m0 64c-70.7 0-128-57.3-128-128 0-59.6 40.8-109.8 96-124v-174.7h64v64h53.3v64H544l0.1 46.7c55.2 14.2 95.9 64.3 95.9 124 0 70.7-57.4 128-128 128z m0 256l384-170.7v-256c0-236.8-163.8-458.2-384-512-220.2 53.8-384 275.2-384 512v256L512 853.3z"  horiz-adv-x="1024" />

    
    <glyph glyph-name="flow" unicode="&#59490;" d="M725.3 597.3H426.6v-128h-128v-298.7h298.7v128h128V597.3zM426.6 810.7v-128h298.7c47.1 0 85.3-38.2 85.3-85.3v-298.7h128v-341.3H597.3v128H298.6c-47.1 0-85.3 38.2-85.3 85.3V469.3h-128V810.7h341.3z"  horiz-adv-x="1024" />

    
    <glyph glyph-name="plugin" unicode="&#59492;" d="M475.1 704c-16.5 0-32.2-6.5-43.9-18.2-10.2-10.2-16.5-23.5-17.9-37.7l-0.3-6.1v-85.3H191.9v-87.3h6.8c75 0 136.2-58.7 140.4-132.6l0.2-8c0-75-58.7-136.2-132.6-140.4l-8-0.2h-6.8V64H316v9.1c0 73.8 57.7 134 130.5 138.1l7.8 0.2c73.8 0 134-57.7 138.1-130.5l0.2-7.8v-9.1h91.8l0.1 221h85.3c34.3 0 62.1 27.8 62.1 62.1 0 32.3-24.6 58.8-56.1 61.8l-6 0.3h-85.3V556.6H537.1v85.3c0 16.5-6.5 32.2-18.2 43.9-11.6 11.7-27.4 18.2-43.8 18.2z m0 85.3c39.1 0 76.6-15.5 104.2-43.2 27.6-27.6 43.2-65.1 43.2-104.2h147.4v-147.4c81.4 0 147.4-66 147.4-147.4s-66-147.4-147.4-147.4v-221.1H507.4V73c0 29.3-23.7 53-53 53s-53-23.7-53-53v-94.4H106.6V273.5h92.1c30.5 0 55.3 24.7 55.3 55.3 0 30.5-24.7 55.3-55.3 55.3h-92.1V641.9h221.1c0 39.1 15.5 76.6 43.2 104.2 27.6 27.7 65.1 43.2 104.2 43.2z"  horiz-adv-x="1024" />

    
    <glyph glyph-name="check-o" unicode="&#59483;" d="M665.1 572.6l60.2-60.6-298.7-298.7-149.3 149.4 60.2 60.2 89.2-88.7 238.4 238.4zM512 725.3c-188.4 0-341.3-152.9-341.3-341.3S323.5 42.700000000000045 512 42.700000000000045 853.3 195.60000000000002 853.3 384 700.4 725.3 512 725.3z m0 85.4c235.5 0 426.7-191.1 426.7-426.7S747.5-42.700000000000045 512-42.700000000000045 85.3 148.5 85.3 384 276.4 810.7 512 810.7z"  horiz-adv-x="1024" />

    
    <glyph glyph-name="check-s" unicode="&#59484;" d="M426.6 170.70000000000005L213.3 384l60.2 60.2 153.2-152.7 323.8 323.8 60.2-60.6-384.1-384z m85.4 640C276.4 810.7 85.3 619.5 85.3 384S276.4-42.700000000000045 512-42.700000000000045 938.6 148.5 938.6 384 747.5 810.7 512 810.7z"  horiz-adv-x="1024" />

    
    <glyph glyph-name="warning-o" unicode="&#59485;" d="M554.6 448v-170.7h-85.3V448h85.3z m0-256v-85.3h-85.3V192h85.3z m-42.7 427.1L190.6 64h642.7L511.9 619.1z m0 170.2l469.3-810.7H42.6l469.3 810.7z"  horiz-adv-x="1024" />

    
    <glyph glyph-name="warning-s" unicode="&#59480;" d="M554.6 277.29999999999995h-85.3V448h85.3v-170.7z m0-170.6h-85.3V192h85.3v-85.3z m-512-128h938.7L512 789.3 42.6-21.299999999999955z"  horiz-adv-x="1024" />

    
    <glyph glyph-name="danger-s" unicode="&#59481;" d="M554.6 341.29999999999995h-85.3v256h85.3v-256z m0-170.6h-85.3V256h85.3v-85.3zM512 810.7C276.4 810.7 85.3 619.5 85.3 384S276.4-42.700000000000045 512-42.700000000000045 938.6 148.5 938.6 384 747.5 810.7 512 810.7z"  horiz-adv-x="1024" />

    
    <glyph glyph-name="danger-o" unicode="&#59482;" d="M512 42.700000000000045c-188.6 0-341.3 152.7-341.3 341.3S323.4 725.3 512 725.3 853.3 572.6 853.3 384 700.5 42.700000000000045 512 42.700000000000045z m-0.5 768C276 810.7 85.3 619.5 85.3 384S276-42.700000000000045 511.5-42.700000000000045c235.9 0 427.1 191.1 427.1 426.7S747.5 810.7 511.5 810.7z m-42.2-213.4h85.3v-256h-85.3v256z m0-341.3h85.3v-85.3h-85.3V256z"  horiz-adv-x="1024" />

    
    <glyph glyph-name="play-s" unicode="&#59473;" d="M426.6 192V576l256-192-256-192z m85.3 618.7C276.4 810.7 85.3 619.5 85.3 384S276.4-42.700000000000045 512-42.700000000000045 938.6 148.5 938.6 384 747.5 810.7 511.9 810.7z"  horiz-adv-x="1024" />

    
    <glyph glyph-name="play-o" unicode="&#59474;" d="M512 42.700000000000045c-188.2 0-341.3 153.2-341.3 341.3S323.8 725.3 512 725.3 853.3 572.2 853.3 384 700.1 42.700000000000045 512 42.700000000000045z m0 768C276.4 810.7 85.3 619.5 85.3 384S276.4-42.700000000000045 512-42.700000000000045 938.6 148.5 938.6 384 747.5 810.7 512 810.7zM426.6 192l256 192-256 192v-384z"  horiz-adv-x="1024" />

    
    <glyph glyph-name="mail-o" unicode="&#59475;" d="M512 426.7L170.6 640h682.7L512 426.7zM853.3 128H170.6V554.7L512 341.29999999999995l341.3 213.3V128z m0 597.3H170.6c-46.9 0-84.9-38.4-84.9-85.3l-0.4-512c0-46.9 38.4-85.3 85.3-85.3h682.7c46.9 0 85.3 38.4 85.3 85.3V640c0 46.9-38.4 85.3-85.3 85.3z"  horiz-adv-x="1024" />

    
    <glyph glyph-name="security" unicode="&#59476;" d="M512 384.4h298.7C788 208.60000000000002 670.7 52.10000000000002 512 3V384H213.3V627.2L512 759.9v-375.5z m0 468.9L128 682.6v-256c0-236.8 163.8-458.2 384-512 220.2 53.8 384 275.2 384 512v256L512 853.3z"  horiz-adv-x="1024" />

    
    <glyph glyph-name="pause-s" unicode="&#59477;" d="M640 213.29999999999995h-85.3V554.7H640v-341.4z m-170.7 0H384V554.7h85.3v-341.4zM512 810.7C276.4 810.7 85.3 619.5 85.3 384S276.4-42.700000000000045 512-42.700000000000045 938.6 148.5 938.6 384 747.5 810.7 512 810.7z"  horiz-adv-x="1024" />

    
    <glyph glyph-name="play" unicode="&#59478;" d="M746.6 384L277.3 85.29999999999995V682.7L746.6 384z"  horiz-adv-x="1024" />

    
    <glyph glyph-name="pause-o" unicode="&#59479;" d="M554.6 213.29999999999995H640V554.7h-85.3v-341.4zM512 42.700000000000045c-188.2 0-341.3 153.2-341.3 341.3S323.8 725.3 512 725.3 853.3 572.2 853.3 384 700.1 42.700000000000045 512 42.700000000000045z m0 768C276.4 810.7 85.3 619.5 85.3 384S276.4-42.700000000000045 512-42.700000000000045 938.6 148.5 938.6 384 747.5 810.7 512 810.7zM384 213.29999999999995h85.3V554.7H384v-341.4z"  horiz-adv-x="1024" />

    
    <glyph glyph-name="spacing" unicode="&#59463;" d="M437.3 341.29999999999995h512v85.3h-512v-85.3z m0-256h512v85.3h-512v-85.3z m0 597.4v-85.3h512v85.3h-512z m-170.7-85.4h106.7L223.9 746.7 74.6 597.3h106.7v-426.7H74.6l149.3-149.3 149.3 149.3H266.6V597.3z"  horiz-adv-x="1024" />

    
    <glyph glyph-name="pause" unicode="&#59464;" d="M597.3 682.7v-597.3H768V682.7H597.3zM255.9 85.29999999999995h170.7V682.7H255.9v-597.4z"  horiz-adv-x="1024" />

    
    <glyph glyph-name="close-o" unicode="&#59465;" d="M512 42.700000000000045c-188.2 0-341.3 153.2-341.3 341.3S323.8 725.3 512 725.3 853.3 572.2 853.3 384 700.1 42.700000000000045 512 42.700000000000045z m0 768C276 810.7 85.3 619.9 85.3 384S276-42.700000000000045 512-42.700000000000045 938.6 148.10000000000002 938.6 384 747.9 810.7 512 810.7z m110.5-256L512 444.2 401.4 554.7l-60.2-60.2L451.8 384 341.3 273.5l60.2-60.2L512 323.79999999999995l110.5-110.5 60.2 60.2L572.1 384l110.5 110.5-60.1 60.2z"  horiz-adv-x="1024" />

    
    <glyph glyph-name="unlock" unicode="&#59466;" d="M768 21.299999999999955H256V448h512v-426.7z m0 512h-42.7v85.3C725.3 736.4 629.7 832 512 832s-213.3-95.6-213.3-213.3h81.1c0 73 59.3 132.3 132.3 132.3s132.3-59.3 132.3-132.3v-85.3H255.9c-46.9 0-85.3-38.4-85.3-85.3v-426.7c0-46.9 38.4-85.3 85.3-85.3h512c46.9 0 85.3 38.4 85.3 85.3V448c0.1 46.9-38.3 85.3-85.2 85.3z m-256-384c46.9 0 85.3 38.4 85.3 85.3s-38.4 85.3-85.3 85.3-85.3-38.4-85.3-85.3c-0.1-46.9 38.3-85.3 85.3-85.3z"  horiz-adv-x="1024" />

    
    <glyph glyph-name="font-size" unicode="&#59467;" d="M106.6 362.70000000000005h128V64h128V362.70000000000005h128v128h-384v-128z m256 341.3v-128H576v-512h128V576h213.3V704H362.6z"  horiz-adv-x="1024" />

    
    <glyph glyph-name="italic" unicode="&#59468;" d="M768 682.7v-128H649L503 213.29999999999995h94.3v-128H255.9v128h119l145.9 341.3h-94.3v128H768z"  horiz-adv-x="1024" />

    
    <glyph glyph-name="bold" unicode="&#59469;" d="M560 192H410.6V320H560c35.4 0 64-28.6 64-64s-28.6-64-64-64zM410.6 576h128c35.4 0 64-28.6 64-64s-28.6-64-64-64h-128V576z m238.9-183c41.4 28.6 70.4 75.5 70.4 119 0 96.4-74.7 170.7-170.7 170.7H282.6v-597.3H583c89.2 0 158.3 72.5 158.3 161.7 0 64.8-36.7 120.3-91.8 145.9z"  horiz-adv-x="1024" />

    
    <glyph glyph-name="textarea" unicode="&#59472;" d="M456.1 352.4h111.4L512 515.8l-55.9-163.4z m129.7-53.7H436.9l-31.1-85.3h-69.1l145.1 384h59.7l145.5-384h-69.5l-31.7 85.3z m224.8 384V768H896v-85.3h-85.4zM896 0h-85.3v85.3H896V0z m-170.7 85.3H298.6v85.3h-85.3V597.3h85.3v85.3h426.7v-85.3h85.3v-426.7h-85.3v-85.3z m-512-85.3H128v85.3h85.3V0z m-85.4 768h85.3v-85.3h-85.3V768z m853.4-170.7v256h-256V768H298.6V853.3h-256v-256h85.3v-426.7H42.6v-256h256V0h426.7v-85.3h256v256H896V597.3h85.3z"  horiz-adv-x="1024" />

    
    <glyph glyph-name="folder-s" unicode="&#59454;" d="M512 640h341.3c46.9 0 85.3-38.4 85.3-85.3V128c0-46.9-38.4-85.3-85.3-85.3H170.6c-46.9 0-85.3 38.4-85.3 85.3l0.4 512c0 46.9 38 85.3 84.9 85.3h256L512 640z"  horiz-adv-x="1024" />

    
    <glyph glyph-name="lock" unicode="&#59455;" d="M768 21.299999999999955H256V448h512v-426.7zM379.7 618.7c0 73 59.3 132.3 132.3 132.3s132.3-59.3 132.3-132.3v-85.3H379.7v85.3zM768 533.3h-42.7v85.3C725.3 736.4 629.7 832 512 832s-213.3-95.6-213.3-213.3v-85.3H256c-46.9 0-85.3-38.4-85.3-85.3v-426.7c0-46.9 38.4-85.3 85.3-85.3h512c46.9 0 85.3 38.4 85.3 85.3V448c0 46.9-38.4 85.3-85.3 85.3z m-256-384c46.9 0 85.3 38.4 85.3 85.3s-38.4 85.3-85.3 85.3-85.3-38.4-85.3-85.3c-0.1-46.9 38.3-85.3 85.3-85.3z"  horiz-adv-x="1024" />

    
    <glyph glyph-name="drafts" unicode="&#59456;" d="M512 277.29999999999995L159.5 497.5 512 704l352.4-206.5L512 277.29999999999995z m426.2 213.4c0 30.7-15.8 57.6-40.1 72.5L512 789.3 125.8 563.2c-24.3-14.9-40.5-41.8-40.5-72.5V64c0-46.9 38.4-85.3 85.3-85.3h682.7c46.9 0 85.3 38.4 85.3 85.3l-0.4 426.7z"  horiz-adv-x="1024" />

    
    <glyph glyph-name="dns" unicode="&#59457;" d="M298.6 512c-46.9 0-85.3 38.4-85.3 85.3s38.4 85.3 85.3 85.3 85.3-38.4 85.3-85.3-38.3-85.3-85.3-85.3z m554.7 256H170.6c-23.5 0-42.7-19.2-42.7-42.7v-256c0-23.5 19.2-42.7 42.7-42.7h682.7c23.5 0 42.7 19.2 42.7 42.7v256c0 23.5-19.3 42.7-42.7 42.7zM298.6 85.3c-46.9 0-85.3 38.4-85.3 85.3s38.4 85.3 85.3 85.3 85.3-38.4 85.3-85.3c0.1-46.9-38.3-85.3-85.3-85.3z m554.7 256H170.6c-23.5 0-42.7-19.2-42.7-42.7v-256c0-23.5 19.2-42.7 42.7-42.7h682.7c23.5 0 42.7 19.2 42.7 42.7v256c0 23.5-19.3 42.7-42.7 42.7z"  horiz-adv-x="1024" />

    
    <glyph glyph-name="folder-share" unicode="&#59458;" d="M810.6 170.70000000000005H469.3v42.7c0 56.7 113.9 85.3 170.7 85.3 56.7 0 170.7-28.6 170.7-85.3v-42.7zM640 512c46.9 0 85.3-38.4 85.3-85.3s-38.4-85.3-85.3-85.3-85.3 38.4-85.3 85.3S593 512 640 512z m213.3 128H512l-85.3 85.3h-256c-46.9 0-84.9-38.4-84.9-85.3l-0.4-512c0-46.9 38.4-85.3 85.3-85.3h682.7c46.9 0 85.3 38.4 85.3 85.3V554.7c-0.1 46.9-38.5 85.3-85.4 85.3z"  horiz-adv-x="1024" />

    
    <glyph glyph-name="lock-s" unicode="&#59460;" d="M644.2 533.3H379.7v85.3c0 73 59.3 132.3 132.3 132.3s132.3-59.3 132.3-132.3v-85.3zM512 149.29999999999995c-46.9 0-85.3 38.4-85.3 85.3s38.4 85.3 85.3 85.3 85.3-38.4 85.3-85.3-38.4-85.3-85.3-85.3z m256 384h-42.7v85.3C725.3 736.4 629.7 832 512 832s-213.3-95.6-213.3-213.3v-85.3H256c-46.9 0-85.3-38.4-85.3-85.3v-426.7c0-46.9 38.4-85.3 85.3-85.3h512c46.9 0 85.3 38.4 85.3 85.3V448c0 46.9-38.4 85.3-85.3 85.3z"  horiz-adv-x="1024" />

    
    <glyph glyph-name="mail-s" unicode="&#59461;" d="M853.3 554.7L512 341.29999999999995 170.6 554.7V640L512 426.7 853.3 640v-85.3z m0 170.6H170.6c-46.9 0-84.9-38.4-84.9-85.3l-0.4-512c0-46.9 38.4-85.3 85.3-85.3h682.7c46.9 0 85.3 38.4 85.3 85.3V640c0 46.9-38.4 85.3-85.3 85.3z"  horiz-adv-x="1024" />

    
    <glyph glyph-name="folder-o" unicode="&#59462;" d="M853.3 128H170.6V554.7h682.7V128z m0 512H512l-85.3 85.3h-256c-46.9 0-84.9-38.4-84.9-85.3l-0.4-512c0-46.9 38.4-85.3 85.3-85.3h682.7c46.9 0 85.3 38.4 85.3 85.3V554.7c-0.1 46.9-38.5 85.3-85.4 85.3z"  horiz-adv-x="1024" />

    
    <glyph glyph-name="palette" unicode="&#59443;" d="M746.6 384c-35.4 0-64 28.6-64 64s28.6 64 64 64 64-28.6 64-64-28.6-64-64-64z m-128 170.7c-35.4 0-64 28.6-64 64s28.6 64 64 64 64-28.6 64-64-28.6-64-64-64z m-213.3 0c-35.4 0-64 28.6-64 64s28.6 64 64 64 64-28.6 64-64-28.6-64-64-64zM277.3 384c-35.4 0-64 28.6-64 64s28.6 64 64 64 64-28.6 64-64-28.6-64-64-64zM512 768c-212.1 0-384-171.9-384-384s171.9-384 384-384c35.4 0 64 28.6 64 64 0 16.6-6.4 31.6-16.6 43.1-9.8 11.1-16.2 26-16.2 42.2 0 35.4 28.6 64 64 64h75.5c117.8 0 213.3 95.6 213.3 213.3C896 615.3 724 768 512 768z"  horiz-adv-x="1024" />

    
    <glyph glyph-name="info-o" unicode="&#59444;" d="M469.3 512h85.3v85.3h-85.3V512zM512 42.700000000000045c-188.2 0-341.3 153.2-341.3 341.3S323.8 725.3 512 725.3 853.3 572.2 853.3 384 700.1 42.700000000000045 512 42.700000000000045z m0 768C276.4 810.7 85.3 619.5 85.3 384S276.4-42.700000000000045 512-42.700000000000045 938.6 148.5 938.6 384 747.5 810.7 512 810.7z m-42.7-640h85.3v256h-85.3v-256z"  horiz-adv-x="1024" />

    
    <glyph glyph-name="question-s" unicode="&#59445;" d="M642.9 416l-38.4-39.3c-30.7-31.1-49.9-56.7-49.9-120.7h-85.3v21.3c0 46.9 19.2 89.6 49.9 120.7l52.9 53.8c15.8 15.4 25.2 36.7 25.2 60.2 0 46.9-38.4 85.3-85.3 85.3s-85.3-38.4-85.3-85.3h-85.3c0 94.3 76.4 170.7 170.7 170.7S682.6 606.3 682.6 512c0-37.5-15.3-71.7-39.7-96z m-88.3-330.7h-85.3v85.3h85.3v-85.3zM512 810.7C276.4 810.7 85.3 619.5 85.3 384S276.4-42.700000000000045 512-42.700000000000045 938.6 148.5 938.6 384 747.5 810.7 512 810.7z"  horiz-adv-x="1024" />

    
    <glyph glyph-name="info-s" unicode="&#59446;" d="M554.6 512h-85.3v85.3h85.3V512z m0-341.3h-85.3v256h85.3v-256zM512 810.7C276.4 810.7 85.3 619.5 85.3 384S276.4-42.700000000000045 512-42.700000000000045 938.6 148.5 938.6 384 747.5 810.7 512 810.7z"  horiz-adv-x="1024" />

    
    <glyph glyph-name="adjust" unicode="&#59448;" d="M640 512h85.3v85.3H896v85.3H725.3V768H640v-256z m256-170.7v85.3H469.3v-85.3H896zM298.6 512v-85.3H127.9v-85.3h170.7V256H384V512h-85.4z m256-512v85.3H896v85.3H554.6V256h-85.3v-256h85.3zM127.9 682.7v-85.3h426.7v85.3H127.9z m0-512v-85.3h256v85.3h-256z"  horiz-adv-x="1024" />

    
    <glyph glyph-name="question-o" unicode="&#59449;" d="M512 640c-94.3 0-170.7-76.4-170.7-170.7h85.3c0 46.9 38.4 85.3 85.3 85.3s85.3-38.4 85.3-85.3c0-85.3-128-74.7-128-213.3h85.3c0 96 128 106.7 128 213.3 0.1 94.3-76.3 170.7-170.5 170.7z m0-597.3c-188.2 0-341.3 153.2-341.3 341.3S323.8 725.3 512 725.3 853.3 572.2 853.3 384 700.1 42.700000000000045 512 42.700000000000045z m0 768C276.4 810.7 85.3 619.5 85.3 384S276.4-42.700000000000045 512-42.700000000000045 938.6 148.5 938.6 384 747.5 810.7 512 810.7zM469.3 128h85.3v85.3h-85.3V128z"  horiz-adv-x="1024" />

    
    <glyph glyph-name="layer" unicode="&#59450;" d="M512 193.5L826 438l70 54.2-384 298.6-384-298.7 69.5-54.2L512 193.5z m-0.5-108.4L197.1 329.6 128 275.8l384-298.7 384 298.7-69.6 54.2-314.9-244.9z"  horiz-adv-x="1024" />

    
    <glyph glyph-name="reminder" unicode="&#59451;" d="M273.1 453.1l60.2 60.2-151.5 151.9-60.6-60.6c4.7-1.3 151.9-151.5 151.9-151.5z m281.6 333.2h-85.3V573h85.3V786.3z m348.2-181.7l-60.2 60.2-151.9-151.5 60.2-60.2s147.2 150.2 151.9 151.5z m108.8-444.2C881.5 283.70000000000005 705.8 359.70000000000005 512.1 359.70000000000005s-369.5-76-499.7-199.3C4.7 152.70000000000005 0 142.10000000000002 0 130.10000000000002s4.7-22.6 12.4-30.3L118.2-6c7.7-7.7 18.3-12.4 30.3-12.4 11.5 0 22.2 4.7 29.9 11.9 33.7 31.6 72.1 58 113.5 78.9 14.1 6.8 23.9 21.3 23.9 38.4V243.20000000000005c61.9 20.5 128 31.1 196.3 31.1s134.4-10.7 196.3-30.7v-132.3c0-16.6 9.8-31.6 23.9-38.4C774.1 52 812.1 25.100000000000023 845.8-6c7.7-7.7 18.3-11.9 29.9-11.9 11.9 0 22.6 4.7 30.3 12.4l105.8 105.8c7.7 7.7 12.4 18.3 12.4 30.3-0.1 11.5-4.8 22.1-12.5 29.8z"  horiz-adv-x="1024" />

    
    <glyph glyph-name="attachment" unicode="&#59440;" d="M746.6 640v-490.7c0-129.7-105-234.7-234.7-234.7s-234.7 105-234.7 234.7V682.7c0 94.3 76.4 170.7 170.7 170.7S618.6 777 618.6 682.7v-448c0-58.9-47.8-106.7-106.7-106.7s-106.7 47.8-106.7 106.7V640h64v-405.3c0-23.5 19.2-42.7 42.7-42.7 23.5 0 42.7 19.2 42.7 42.7v448c0 58.9-47.8 106.7-106.7 106.7s-106.7-47.8-106.7-106.7v-533.3c0-94.3 76.4-170.7 170.7-170.7S682.6 55 682.6 149.29999999999995V640h64z"  horiz-adv-x="1024" />

    
    <glyph glyph-name="role" unicode="&#59442;" d="M512 42.700000000000045c-188.2 0-341.3 153.2-341.3 341.3 0 12.4 0.9 24.7 2.1 36.7C273.4 465.5 353.2 547.8 395 649.8c77.2-109.2 204.4-180.5 348.2-180.5 33.3 0 65.3 3.8 96 11.1 9-30.3 14.1-62.7 14.1-96.4 0-188.2-153.2-341.3-341.3-341.3z m0 768C276.4 810.7 85.3 619.5 85.3 384S276.4-42.700000000000045 512-42.700000000000045 938.6 148.5 938.6 384 747.5 810.7 512 810.7z m128-416c-29.4 0-53.3-23.9-53.3-53.3S610.5 288 640 288c29.4 0 53.3 23.9 53.3 53.3s-23.9 53.4-53.3 53.4z m-256 0c-29.4 0-53.3-23.9-53.3-53.3S354.5 288 384 288c29.4 0 53.3 23.9 53.3 53.3s-23.9 53.4-53.3 53.4z"  horiz-adv-x="1024" />

    
    <glyph glyph-name="bad" unicode="&#59433;" d="M512 298.70000000000005c-99.4 0-183.9-62.3-218-149.3h436c-34.2 87-118.6 149.3-218 149.3zM333.6 384l45.2 45.2L424 384l45.2 45.2-45.2 45.2 45.2 45.2-45.2 45.2-45.2-45.2-45.2 45.2-45.2-45.2 45.2-45.2-45.2-45.2 45.2-45.2z m356.7 180.9l-45.2-45.2-45.2 45.2-45.2-45.2 45.2-45.2-45.2-45.2 45.2-45.2 45.2 45.2 45.2-45.2 45.2 45.2-45.2 45.2 45.2 45.2-45.2 45.2zM512 42.700000000000045c-188.6 0-341.3 152.7-341.3 341.3S323.4 725.3 512 725.3 853.3 572.6 853.3 384 700.5 42.700000000000045 512 42.700000000000045z m-0.5 768C276 810.7 85.3 619.9 85.3 384S276-42.700000000000045 511.5-42.700000000000045 938.6 148.10000000000002 938.6 384 747.5 810.7 511.5 810.7z"  horiz-adv-x="1024" />

    
    <glyph glyph-name="excellent" unicode="&#59434;" d="M512 149.29999999999995c99.4 0 183.9 62.3 218 149.3H293.9c34.2-87 118.6-149.3 218.1-149.3zM378.8 471.9l45.2-45.2 45.2 45.2-90.5 90.5-90.5-90.5 45.2-45.2 45.4 45.2z m175.8 0l45.2-45.2 45.2 45.2 45.2-45.2 45.2 45.2-90.5 90.5-90.3-90.5zM512 42.700000000000045c-188.6 0-341.3 152.7-341.3 341.3S323.4 725.3 512 725.3 853.3 572.6 853.3 384 700.5 42.700000000000045 512 42.700000000000045z m-0.5 768C276 810.7 85.3 619.9 85.3 384S276-42.700000000000045 511.5-42.700000000000045 938.6 148.10000000000002 938.6 384 747.5 810.7 511.5 810.7z"  horiz-adv-x="1024" />

    
    <glyph glyph-name="ordinary" unicode="&#59435;" d="M512 298.70000000000005c-99.4 0-183.9-62.3-218-149.3h436c-34.2 87-118.6 149.3-218 149.3z m-149.4 128c35.4 0 64 28.6 64 64s-28.6 64-64 64-64-28.6-64-64 28.6-64 64-64z m298.7 0c35.4 0 64 28.6 64 64s-28.6 64-64 64-64-28.6-64-64 28.6-64 64-64zM512 42.700000000000045c-188.6 0-341.3 152.7-341.3 341.3S323.4 725.3 512 725.3 853.3 572.6 853.3 384 700.5 42.700000000000045 512 42.700000000000045z m-0.5 768C276 810.7 85.3 619.5 85.3 384S276-42.700000000000045 511.5-42.700000000000045c235.9 0 427.1 191.1 427.1 426.7S747.5 810.7 511.5 810.7z"  horiz-adv-x="1024" />

    
    <glyph glyph-name="good" unicode="&#59439;" d="M512 149.29999999999995c99.4 0 183.9 62.3 218 149.3H293.9c34.2-87 118.6-149.3 218.1-149.3zM362.6 426.7c35.4 0 64 28.6 64 64s-28.6 64-64 64-64-28.6-64-64 28.6-64 64-64z m298.7 0c35.4 0 64 28.6 64 64s-28.6 64-64 64-64-28.6-64-64 28.6-64 64-64zM512 42.700000000000045c-188.6 0-341.3 152.7-341.3 341.3S323.4 725.3 512 725.3 853.3 572.6 853.3 384 700.5 42.700000000000045 512 42.700000000000045z m-0.5 768C276 810.7 85.3 619.5 85.3 384S276-42.700000000000045 511.5-42.700000000000045c235.9 0 427.1 191.1 427.1 426.7S747.5 810.7 511.5 810.7z"  horiz-adv-x="1024" />

    
    <glyph glyph-name="check-square" unicode="&#59423;" d="M426.6 170.70000000000005L213.3 384l60.2 60.2 153.2-152.7 323.8 323.8 60.2-60.6-384.1-384z m384 597.3H213.3c-47.4 0-85.3-38.4-85.3-85.3v-597.3c0-46.9 38-85.3 85.3-85.3h597.3c47.4 0 85.3 38.4 85.3 85.3V682.7c0.1 46.9-37.9 85.3-85.3 85.3z"  horiz-adv-x="1024" />

    
    <glyph glyph-name="star-half" unicode="&#59424;" d="M512 217.6V614.4L585 442l186.9-16.2-141.8-122.9 42.7-182.6L512 217.6z m426.6 262.8l-306.8 26.5L512 789.3 392.1 506.5l-306.8-26 233-201.8-70-299.9 263.7 159 263.7-159.1-69.5 299.9 232.4 201.8z"  horiz-adv-x="1024" />

    
    <glyph glyph-name="check-some" unicode="&#59425;" d="M725.3 341.29999999999995H298.6v85.3h426.7v-85.3zM810.6 768H213.3c-46.9 0-85.3-38.4-85.3-85.3v-597.3c0-46.9 38.4-85.3 85.3-85.3h597.3c46.9 0 85.3 38.4 85.3 85.3V682.7c0.1 46.9-38.3 85.3-85.3 85.3z"  horiz-adv-x="1024" />

    
    <glyph glyph-name="adduser" unicode="&#59426;" d="M640 298.70000000000005c-113.9 0-341.3-57.2-341.3-170.7v-85.3h682.7V128c-0.1 113.5-227.5 170.7-341.4 170.7zM256 469.3v128h-85.3v-128h-128V384h128v-128H256V384h128v85.3H256zM640 384c94.3 0 170.7 76.4 170.7 170.7S734.2 725.3 640 725.3 469.3 649 469.3 554.7 545.7 384 640 384z"  horiz-adv-x="1024" />

    
    <glyph glyph-name="addteam" unicode="&#59427;" d="M554.6 320c-85.3 0-256-42.7-256-128v-85.3h512V192c0 85.3-170.6 128-256 128z m282.5-6.8C872.5 282 896 242.29999999999995 896 192v-85.3h128V192c0 65.7-101.2 106.2-186.9 121.2z m-282.5 92.1c70.8 0 127.6 57.2 127.6 128s-56.7 128-127.6 128-128-57.2-128-128 57.2-128 128-128z m213.4 0c70.8 0 127.6 57.2 127.6 128s-56.7 128-127.6 128c-13.7 0-26.9-2.1-38.8-6 24.3-34.6 38.4-76.4 38.4-122s-14.5-87-38.4-122c11.9-3.8 25.1-6 38.8-6zM341.3 448h-128V576H128v-128H0v-85.3h128v-128h85.3v128h128V448z"  horiz-adv-x="1024" />

    
    <glyph glyph-name="star-o" unicode="&#59428;" d="M512 217.60000000000002l-160.4-96.9 42.7 182.6-141.8 122.9 186.9 16.2 72.6 172L585 442l186.9-16.2-141.8-122.9 42.7-182.6L512 217.60000000000002z m426.6 262.8l-306.8 26.5L512 789.3 392.1 506.5l-306.8-26 233-201.8-70-299.9 263.7 159 263.7-159.1-69.5 299.9 232.4 201.8z"  horiz-adv-x="1024" />

    
    <glyph glyph-name="circle" unicode="&#59429;" d="M512 42.700000000000045c-188.6 0-341.3 152.7-341.3 341.3S323.4 725.3 512 725.3 853.3 572.6 853.3 384 700.5 42.700000000000045 512 42.700000000000045z m0 768C276.4 810.7 85.3 619.5 85.3 384S276.4-42.700000000000045 512-42.700000000000045 938.6 148.5 938.6 384 747.5 810.7 512 810.7z"  horiz-adv-x="1024" />

    
    <glyph glyph-name="circle-o" unicode="&#59430;" d="M512 42.700000000000045c-188.6 0-341.3 152.7-341.3 341.3S323.4 725.3 512 725.3 853.3 572.6 853.3 384 700.5 42.700000000000045 512 42.700000000000045z m0 768C276.4 810.7 85.3 619.5 85.3 384S276.4-42.700000000000045 512-42.700000000000045 938.6 148.5 938.6 384 747.5 810.7 512 810.7z m0-213.4c-117.8 0-213.3-95.6-213.3-213.3S394.2 170.70000000000005 512 170.70000000000005 725.3 266.20000000000005 725.3 384 629.7 597.3 512 597.3z"  horiz-adv-x="1024" />

    
    <glyph glyph-name="square" unicode="&#59431;" d="M810.6 768H213.3c-46.9 0-85.3-38.4-85.3-85.3v-597.3c0-46.9 38.4-85.3 85.3-85.3h597.3c46.9 0 85.3 38.4 85.3 85.3V682.7c0.1 46.9-38.3 85.3-85.3 85.3z m0-85.3v-597.3H213.3V682.7h597.3"  horiz-adv-x="1024" />

    
    <glyph glyph-name="star-s" unicode="&#59432;" d="M248.3-21.299999999999955l70 299.9-233 201.8 306.8 26L512 789.3l119.9-282.9 306.8-26-233-201.8 70-299.9L512 137.79999999999995 248.3-21.299999999999955z"  horiz-adv-x="1024" />

    
    <glyph glyph-name="night" unicode="&#59413;" d="M512 128c-38 0-74.2 8.5-106.7 23.5C493.2 192 554.6 280.70000000000005 554.6 384s-61.4 192-149.3 232.5C437.7 631.5 474 640 512 640c141.2 0 256-114.8 256-256S653.2 128 512 128z m341.3 397.2V725.3H653.2L512 866.6 370.7 725.3H170.6v-200.1L29.4 384l141.2-141.2v-200.1h200.1L512-98.60000000000002l141.2 141.2h200.1V242.79999999999995L994.5 384 853.3 525.2z"  horiz-adv-x="1024" />

    
    <glyph glyph-name="team-s" unicode="&#59414;" d="M682.6 341.29999999999995c-12.4 0-26.5-0.9-41.4-2.1 49.5-35.8 84.1-84.1 84.1-147.2v-106.7h256V192c0 99.4-199.3 149.3-298.7 149.3z m-341.3 0c-99.4 0-298.7-49.9-298.7-149.3v-106.7H640V192c0 99.4-199.3 149.3-298.7 149.3z m0 85.4c70.8 0 127.6 57.2 127.6 128s-56.7 128-127.6 128-128-57.2-128-128 57.2-128 128-128z m341.3 0c70.8 0 127.6 57.2 127.6 128s-56.7 128-127.6 128-128-57.2-128-128 57.2-128 128-128z"  horiz-adv-x="1024" />

    
    <glyph glyph-name="bell-on" unicode="&#59415;" d="M512-32c6 0 11.5 0.4 17.1 1.7 27.7 6 50.3 24.7 61.4 50.3 4.3 10.2 6.4 21.3 6.4 33.3H426.2c0.4-46.9 38.4-85.3 85.8-85.3z m256 469.3c0 131-70 240.6-192 269.7v29c0 35.4-28.6 64-64 64s-64-28.6-64-64v-29c-122.5-29-192-138.2-192-269.7V224l-85.3-85.3V96h682.7v42.7L768 224V437.3z m84 21.4h85.3c-6.4 136.5-73.8 256.9-175.8 334.9l-60.6-61c86.3-61.9 144.7-160.9 151.1-273.9zM323.4 732.6l-61 61C160 715.5 92.5 595.2 86.6 458.7h85.3c6.4 113 64.4 212 151.5 273.9z"  horiz-adv-x="1024" />

    
    <glyph glyph-name="bell-off" unicode="&#59416;" d="M746.6 280.29999999999995v157c0 131.4-70 240.6-192 269.7v29c0 35.4-28.6 64-64 64s-64-28.6-64-64v-29c-6.4-1.3-12.4-3.4-17.9-5.1-4.3-1.3-8.5-3-12.8-4.7h-0.4c-0.4 0-0.4 0-0.9-0.4-9.8-3.8-19.6-8.5-29-13.2 0 0-0.4 0-0.4-0.4l381.4-402.9zM490.6-32c47.4 0 85.3 38 85.3 85.3H405.3c0-47.3 38-85.3 85.3-85.3zM832 109.20000000000005L313.1 644.7 203.5 757.8l-54.2-54.2 119.5-119.5v-0.4c-22.2-42.2-34.1-92.2-34.1-145.9v-213.3l-85.3-85.3v-42.7h585.8l85.3-85.3 54.2 54.2-42.7 43.8z"  horiz-adv-x="1024" />

    
    <glyph glyph-name="bell" unicode="&#59417;" d="M682.6 181.29999999999995H341.3v256c0 105.8 64.4 192 170.7 192s170.7-86.2 170.7-192v-256zM768 224V437.3c0 131-69.5 240.6-192 269.7v29c0 35.4-28.6 64-64 64s-64-28.6-64-64v-29c-122-29-192-138.2-192-269.7V224l-85.3-85.3V96h682.7v42.7L768 224zM512-32c46.9 0 85.3 38.4 85.3 85.3H426.6c0-46.9 38.4-85.3 85.4-85.3z"  horiz-adv-x="1024" />

    
    <glyph glyph-name="user" unicode="&#59418;" d="M512 341.29999999999995c-113.9 0-341.3-57.2-341.3-170.7v-128h682.7v128c-0.1 113.6-227.5 170.7-341.4 170.7z m0 384c-94.3 0-170.7-76.4-170.7-170.7S417.7 384 512 384s170.7 76.4 170.7 170.7S606.2 725.3 512 725.3z m0-465c126.7 0 260.3-62.3 260.3-89.6v-46.9H251.7v46.9c0 27.3 133.5 89.6 260.3 89.6m0 384c49.5 0 89.6-40.1 89.6-89.6s-40.1-89.6-89.6-89.6-89.6 40.1-89.6 89.6 40.1 89.6 89.6 89.6"  horiz-adv-x="1024" />

    
    <glyph glyph-name="bell-o" unicode="&#59419;" d="M768 224V437.3c0 131-70 240.6-192 269.7v29c0 35.4-28.6 64-64 64s-64-28.6-64-64v-29c-122.5-29-192-138.2-192-269.7V224l-85.3-85.3V96h682.7v42.7L768 224zM512-32c46.9 0 85.3 38.4 85.3 85.3H426.6c0-46.9 38-85.3 85.4-85.3z"  horiz-adv-x="1024" />

    
    <glyph glyph-name="user-s" unicode="&#59420;" d="M512 298.70000000000005c-113.9 0-341.3-57.2-341.3-170.7v-85.3h682.7V128c-0.1 113.5-227.5 170.7-341.4 170.7z m0 85.3c94.3 0 170.7 76.4 170.7 170.7S606.2 725.3 512 725.3 341.3 649 341.3 554.7 417.7 384 512 384z"  horiz-adv-x="1024" />

    
    <glyph glyph-name="team" unicode="&#59421;" d="M704 618.7c46.9 0 85.3-38.4 85.3-85.3S750.9 448 704 448s-85.3 38.4-85.3 85.3 38.3 85.4 85.3 85.4z m0-234.7c82.3 0 149.3 67 149.3 149.3s-67 149.3-149.3 149.3-149.3-67-149.3-149.3S621.6 384 704 384zM320 618.7c46.9 0 85.3-38.4 85.3-85.3S366.9 448 320 448s-85.3 38.4-85.3 85.3 38.3 85.4 85.3 85.4z m0-234.7c82.3 0 149.3 67 149.3 149.3s-67 149.3-149.3 149.3-149.3-67-149.3-149.3S237.6 384 320 384z m597.3-234.7h-320v53.3c0 19.6-8.5 36.7-22.2 52.1 37.5 12.8 83.6 22.6 128.9 22.6 104.1 0 213.3-51.6 213.3-74.7v-53.3z m-384 0H106.6v53.3c0 23 109.2 74.7 213.3 74.7s213.3-51.6 213.3-74.7v-53.3z m170.7 192c-51.2 0-131-14.5-192-42.7-61 28.6-140.8 42.7-192 42.7-92.6 0-277.3-46.1-277.3-138.7v-117.3h938.7V202.70000000000005c-0.1 92.6-184.9 138.6-277.4 138.6z"  horiz-adv-x="1024" />

    
    <glyph glyph-name="bell-z" unicode="&#59422;" d="M618.6 488.5l-119.5-145h119.5v-76.8H405.3v76.8l119.5 145.1H405.3v76.8h213.3v-76.9zM768 224V437.3c0 131-70 240.6-192 269.7v29c0 35.4-28.6 64-64 64s-64-28.6-64-64v-29c-122.5-29-192-138.7-192-269.7V224l-85.3-85.3V96h682.7v42.7L768 224zM512-32c46.9 0 85.3 38.4 85.3 85.3H426.6c0-46.9 38-85.3 85.4-85.3z"  horiz-adv-x="1024" />

    
    <glyph glyph-name="reply" unicode="&#59404;" d="M896 64C789.3 213.3 640 281.6 426.6 281.6v-174.9L128 405.3 426.6 704v-170.7C725.3 490.7 853.3 277.3 896 64z"  horiz-adv-x="1024" />

    
    <glyph glyph-name="day" unicode="&#59405;" d="M512 128c-141.2 0-256 114.8-256 256s114.8 256 256 256 256-114.8 256-256-114.8-256-256-256z m341.3 114.8L994.5 384 853.3 525.2V725.3H653.2L512 866.6 370.7 725.3H170.6v-200.1L29.4 384l141.2-141.2v-200.1h200.1L512-98.60000000000002l141.2 141.2h200.1V242.79999999999995z"  horiz-adv-x="1024" />

    
    <glyph glyph-name="minus-s" unicode="&#59407;" d="M725.3 341.29999999999995H298.6v85.3h426.7v-85.3zM512 810.7C276.4 810.7 85.3 619.5 85.3 384S276.4-42.700000000000045 512-42.700000000000045 938.6 148.5 938.6 384 747.5 810.7 512 810.7z"  horiz-adv-x="1024" />

    
    <glyph glyph-name="plus-s" unicode="&#59409;" d="M725.3 341.29999999999995H554.6v-170.7h-85.3V341.29999999999995H298.6v85.3h170.7V597.3h85.3v-170.7h170.7v-85.3zM512 810.7C276.4 810.7 85.3 619.5 85.3 384S276.4-42.700000000000045 512-42.700000000000045 938.6 148.5 938.6 384 747.5 810.7 512 810.7z"  horiz-adv-x="1024" />

    
    <glyph glyph-name="minus-o" unicode="&#59410;" d="M512 42.700000000000045c-188.2 0-341.3 153.2-341.3 341.3S323.8 725.3 512 725.3 853.3 572.2 853.3 384 700.1 42.700000000000045 512 42.700000000000045z m0 768C276.4 810.7 85.3 619.5 85.3 384S276.4-42.700000000000045 512-42.700000000000045 938.6 148.5 938.6 384 747.5 810.7 512 810.7z m-213.4-384v-85.3h426.7v85.3H298.6z"  horiz-adv-x="1024" />

    
    <glyph glyph-name="reply-all" unicode="&#59412;" d="M554.6 533.3V704L256 405.3l298.7-298.7v175c213.3 0 362.7-68.3 469.3-217.6-42.7 213.3-170.7 426.7-469.4 469.3z m-256 42.7V704L0 405.3l298.7-298.7v128L128 405.3 298.6 576z"  horiz-adv-x="1024" />

    
    <glyph glyph-name="minus" unicode="&#59393;" d="M810.6 341.29999999999995H213.3v85.3h597.3v-85.3z"  horiz-adv-x="1024" />

    
    <glyph glyph-name="option-horizontal" unicode="&#59394;" d="M512 469.3c-46.9 0-85.3-38.4-85.3-85.3s38.4-85.3 85.3-85.3 85.3 38.4 85.3 85.3-38.4 85.3-85.3 85.3z m256 0c-46.9 0-85.3-38.4-85.3-85.3s38.4-85.3 85.3-85.3 85.3 38.4 85.3 85.3-38.4 85.3-85.3 85.3z m-512 0c-46.9 0-85.3-38.4-85.3-85.3s38.4-85.3 85.3-85.3 85.3 38.4 85.3 85.3-38.4 85.3-85.3 85.3z"  horiz-adv-x="1024" />

    
    <glyph glyph-name="rotate-right" unicode="&#59395;" d="M752.8 625.1C690.9 686.9 606 725.3 511.7 725.3c-188.6 0-340.9-152.7-340.9-341.3s152.3-341.3 340.9-341.3c159.1 0 291.8 108.8 329.8 256h-88.7C717.8 199.29999999999995 623.1 128 511.7 128c-141.2 0-256 114.8-256 256s114.8 256 256 256c70.8 0 134-29.4 180.1-75.9L554.4 426.7h298.7V725.3L752.8 625.1z"  horiz-adv-x="1024" />

    
    <glyph glyph-name="fold" unicode="&#59396;" d="M707.8 665.2l-60.6 60.2L512 590.1 376.7 725.3l-60.6-60.2L512 469.3l195.8 195.9zM316.1 102.79999999999995l60.6-60.2L512 177.89999999999998l135.3-135.3 60.2 60.2L512 298.70000000000005 316.1 102.79999999999995z"  horiz-adv-x="1024" />

    
    <glyph glyph-name="unfold" unicode="&#59397;" d="M512 120.70000000000005L376.7 256l-60.2-60.2L512 0l195.8 195.8-60.6 60.2L512 120.70000000000005z m0 526.6L647.2 512l60.2 60.2L512 768 316.1 572.2l60.6-60.2L512 647.3z"  horiz-adv-x="1024" />

    
    <glyph glyph-name="arrow-corner-right" unicode="&#59398;" d="M832 277.29999999999995l-256-256-60.6 60.6 153.2 152.7H192v512h85.3V320h391.3L515.4 472.7l60.6 60.6 256-256z"  horiz-adv-x="1024" />

    
    <glyph glyph-name="plus" unicode="&#59399;" d="M810.6 341.29999999999995h-256v-256h-85.3v256h-256v85.3h256v256h85.3v-256h256v-85.3z"  horiz-adv-x="1024" />

    
    <glyph glyph-name="arrow-corner-left" unicode="&#59400;" d="M448 533.3l60.6-60.6L355.4 320h391.3V746.7H832v-512H355.4L508.6 82 448 21.299999999999955l-256 256 256 256z"  horiz-adv-x="1024" />

    
    <glyph glyph-name="option-vertical" unicode="&#59401;" d="M512 213.29999999999995c-46.9 0-85.3-38.4-85.3-85.3s38.4-85.3 85.3-85.3 85.3 38.4 85.3 85.3-38.4 85.3-85.3 85.3z m0 256c-46.9 0-85.3-38.4-85.3-85.3s38.4-85.3 85.3-85.3 85.3 38.4 85.3 85.3-38.4 85.3-85.3 85.3z m0 85.4c46.9 0 85.3 38.4 85.3 85.3s-38.4 85.3-85.3 85.3-85.3-38.4-85.3-85.3 38.3-85.3 85.3-85.3z"  horiz-adv-x="1024" />

    
    <glyph glyph-name="plus-o" unicode="&#59402;" d="M512 42.700000000000045c-188.2 0-341.3 153.2-341.3 341.3S323.8 725.3 512 725.3 853.3 572.2 853.3 384 700.1 42.700000000000045 512 42.700000000000045z m0 768C276.4 810.7 85.3 619.5 85.3 384S276.4-42.700000000000045 512-42.700000000000045 938.6 148.5 938.6 384 747.5 810.7 512 810.7z m42.6-213.4h-85.3v-170.7H298.6v-85.3h170.7v-170.7h85.3V341.29999999999995h170.7v85.3H554.6V597.3z"  horiz-adv-x="1024" />

    
    <glyph glyph-name="off-fullscreen" unicode="&#59383;" d="M682.6 554.7v128h-85.3v-213.3h213.3v85.3h-128z m-85.3-469.4h85.3v128h128v85.3H597.3v-213.3z m-256 469.4h-128v-85.3h213.3V682.7h-85.3v-128z m-128-341.4h128v-128h85.3V298.70000000000005H213.3v-85.4z"  horiz-adv-x="1024" />

    
    <glyph glyph-name="fullscreen" unicode="&#59384;" d="M597.3 682.7v-85.3h128v-128h85.3V682.7H597.3z m128-512h-128v-85.3h213.3V298.70000000000005h-85.3v-128z m-512 298.6h85.3v128h128v85.3H213.3v-213.3z m85.3-170.6h-85.3v-213.3h213.3v85.3h-128v128z"  horiz-adv-x="1024" />

    
    <glyph glyph-name="right" unicode="&#59385;" d="M549.3 384L353.9 579.8 414 640l256-256-256-256-60.2 60.2L549.3 384z"  horiz-adv-x="1024" />

    
    <glyph glyph-name="left" unicode="&#59386;" d="M474.6 384L670 188.20000000000005 609.9 128l-256 256 256 256 60.2-60.2L474.6 384z"  horiz-adv-x="1024" />

    
    <glyph glyph-name="last" unicode="&#59387;" d="M776.7 128h-85.3V640h85.3v-512z m-469.3 0l256 256-256 256-60.2-60.2L443 384 247.2 188.20000000000005l60.2-60.2z"  horiz-adv-x="1024" />

    
    <glyph glyph-name="down" unicode="&#59388;" d="M512 346.70000000000005l195.8 195.4 60.2-60.2-256-256-256 256 60.2 60.2L512 346.70000000000005z"  horiz-adv-x="1024" />

    
    <glyph glyph-name="bar" unicode="&#59389;" d="M128 640v-85.3h768V640H128z m0-298.7h768v85.3H128v-85.3z m0-213.3h768v85.3H128V128z"  horiz-adv-x="1024" />

    
    <glyph glyph-name="first" unicode="&#59390;" d="M247.2 640h85.3v-512h-85.3V640z m529.5-451.8L580.9 384l195.8 195.8-60.2 60.2-256-256 256-256 60.2 60.2z"  horiz-adv-x="1024" />

    
    <glyph glyph-name="up" unicode="&#59391;" d="M512 421.3L316.1 225.89999999999998 256 286.1l256 256 256-256-60.2-60.2L512 421.3z"  horiz-adv-x="1024" />

    
    <glyph glyph-name="check" unicode="&#59392;" d="M827 670.1l60.2-60.2-512-512-238.5 238.5 60.6 60.2 177.9-177.9L827 670.1z"  horiz-adv-x="1024" />

    
    <glyph glyph-name="close" unicode="&#59373;" d="M572.1 384l238.5-238.5-60.2-60.2L512 323.8 273.4 85.3l-60.2 60.2L451.8 384 213.3 622.5l60.2 60.2L512 444.2l238.5 238.5 60.2-60.2L572.1 384z"  horiz-adv-x="1024" />

    
    <glyph glyph-name="apps" unicode="&#59374;" d="M682.6 42.7h170.7V213.3H682.6v-170.6z m0 256h170.7V469.3H682.6v-170.6z m-256 256h170.7V725.3H426.6v-170.6z m256 170.6v-170.7h170.7V725.3H682.6z m-256-426.6h170.7V469.3H426.6v-170.6z m-256 0h170.7V469.3H170.6v-170.6z m0-256h170.7V213.3H170.6v-170.6z m256 0h170.7V213.3H426.6v-170.6z m-256 512h170.7V725.3H170.6v-170.6z"  horiz-adv-x="1024" />

    
    <glyph glyph-name="arrow-up" unicode="&#59375;" d="M469.3 42.700000000000045V561.9L230.8 323.79999999999995 170.6 384 512 725.3 853.3 384l-60.2-60.6-238.5 238.5v-519.3h-85.3z"  horiz-adv-x="1024" />

    
    <glyph glyph-name="drop-down-s" unicode="&#59376;" d="M512 298.70000000000005L341.3 469.3h341.3L512 298.70000000000005z m0 512C276.4 810.7 85.3 619.5 85.3 384S276.4-42.700000000000045 512-42.700000000000045 938.6 148.5 938.6 384 747.5 810.7 512 810.7z"  horiz-adv-x="1024" />

    
    <glyph glyph-name="drop-down" unicode="&#59377;" d="M725.3 490.7L512 277.3 298.6 490.7h426.7z"  horiz-adv-x="1024" />

    
    <glyph glyph-name="arrow-down" unicode="&#59378;" d="M554.6 725.3V206l238.5 238.1 60.2-60.2L512 42.700000000000045 170.6 384l60.2 60.6 238.5-238.5V725.3h85.3z"  horiz-adv-x="1024" />

    
    <glyph glyph-name="arrow-right" unicode="&#59379;" d="M170.6 426.7h519.3L451.8 665.2l60.2 60.2L853.3 384 512 42.700000000000045l-60.6 60.2 238.5 238.5H170.6v85.3z"  horiz-adv-x="1024" />

    
    <glyph glyph-name="drop-up" unicode="&#59380;" d="M298.6 277.3L512 490.7l213.3-213.3H298.6z"  horiz-adv-x="1024" />

    
    <glyph glyph-name="close-s" unicode="&#59381;" d="M725.3 230.79999999999995l-60.2-60.2L512 323.79999999999995 358.8 170.70000000000005l-60.2 60.2L451.8 384 298.6 537.2l60.2 60.2L512 444.2l153.2 153.2 60.2-60.2L572.1 384l153.2-153.2zM512 810.7C276 810.7 85.3 619.9 85.3 384S276-42.700000000000045 512-42.700000000000045 938.6 148.10000000000002 938.6 384 747.9 810.7 512 810.7z"  horiz-adv-x="1024" />

    
    <glyph glyph-name="arrow-left" unicode="&#59382;" d="M853.3 341.29999999999995H334l238.1-238.5-60.1-60.1L170.6 384 512 725.3l60.6-60.2L334 426.7h519.3v-85.4z"  horiz-adv-x="1024" />

    
    <glyph glyph-name="verify" unicode="&#59363;" d="M426.6 170.70000000000005L256 341.29999999999995l60.2 60.2 110.5-110.1 281.2 281.2L768 512 426.6 170.70000000000005zM512 853.3L128 682.7v-256c0-236.8 163.8-458.2 384-512 220.2 53.8 384 275.2 384 512v256L512 853.3z"  horiz-adv-x="1024" />

    
    <glyph glyph-name="batch-upload" unicode="&#59364;" d="M597.3 341.29999999999995v-170.7H426.6V341.29999999999995h-128L512 554.7l213.3-213.3h-128z m228.3 126.3c-29 147.2-158.3 257.7-313.6 257.7-123.3 0-230.4-70-283.7-172.4C99.8 539.3 0 430.5 0 298.70000000000005c0-141.2 114.8-256 256-256h554.7c117.8 0 213.3 95.6 213.3 213.3 0 112.6-87.5 203.9-198.4 211.6z"  horiz-adv-x="1024" />

    
    <glyph glyph-name="outdent" unicode="&#59365;" d="M469.3 341.29999999999995H896v85.3H469.3v-85.3z m0 170.7H896v85.3H469.3V512zM128 768v-85.3h768V768H128z m0-768h768v85.3H128V0z m0 384l170.7-170.7V554.7L128 384z m341.3-213.3H896V256H469.3v-85.3z"  horiz-adv-x="1024" />

    
    <glyph glyph-name="save" unicode="&#59366;" d="M640 512H213.3V682.7H640V512zM512 85.3c-70.8 0-128 57.2-128 128s57.2 128 128 128 128-57.2 128-128-57.2-128-128-128zM725.3 768h-512c-47.4 0-85.3-38.4-85.3-85.3v-597.3c0-46.9 38-85.3 85.3-85.3h597.3c46.9 0 85.3 38.4 85.3 85.3v512L725.3 768z"  horiz-adv-x="1024" />

    
    <glyph glyph-name="download" unicode="&#59367;" d="M213.3 106.70000000000005v-85.3h597.3v85.3H213.3z m597.3 384H640v256H384v-256H213.3L512 192l298.6 298.7z"  horiz-adv-x="1024" />

    
    <glyph glyph-name="batch-success" unicode="&#59368;" d="M426.6 170.70000000000005L277.3 320l60.2 60.2 89.2-88.7 221 220.6 60.2-60.2-281.3-281.2z m399 296.9c-29 147.2-158.3 257.7-313.6 257.7-123.3 0-230.4-70-283.7-172.4C99.8 539.3 0 430.5 0 298.70000000000005c0-141.2 114.8-256 256-256h554.7c117.8 0 213.3 95.6 213.3 213.3 0 112.6-87.5 203.9-198.4 211.6z"  horiz-adv-x="1024" />

    
    <glyph glyph-name="batch-download" unicode="&#59369;" d="M725.3 341.29999999999995L512 128 298.6 341.29999999999995h128V512h170.7v-170.7h128z m100.3 126.3c-29 147.2-158.3 257.7-313.6 257.7-123.3 0-230.4-70-283.7-172.4C99.8 539.3 0 430.5 0 298.70000000000005c0-141.2 114.8-256 256-256h554.7c117.8 0 213.3 95.6 213.3 213.3 0 112.6-87.5 203.9-198.4 211.6z"  horiz-adv-x="1024" />

    
    <glyph glyph-name="refresh" unicode="&#59370;" d="M512 128c-141.2 0-256 114.8-256 256 0 43.1 10.7 84.1 29.9 119.5l-62.3 62.3c-33.4-52.5-53-114.8-53-181.8 0-188.6 152.7-341.3 341.3-341.3v-128l170.7 170.7L512 256v-128z m0 597.3v128L341.3 682.7 512 512V640c141.2 0 256-114.8 256-256 0-43.1-10.7-84.1-29.9-119.5l62.3-62.3c33.3 52.5 52.9 114.8 52.9 181.8 0 188.6-152.8 341.3-341.3 341.3z"  horiz-adv-x="1024" />

    
    <glyph glyph-name="upload" unicode="&#59371;" d="M213.3 106.70000000000005v-85.3h597.3v85.3H213.3z m298.7 640L213.3 448H384v-256h256V448h170.7L512 746.7z"  horiz-adv-x="1024" />

    
    <glyph glyph-name="indent" unicode="&#59372;" d="M469.3 341.29999999999995H896v85.3H469.3v-85.3z m0 170.7H896v85.3H469.3V512zM128 768v-85.3h768V768H128z m0-768h768v85.3H128V0z m0 554.7v-341.3L298.6 384 128 554.7z m341.3-384H896V256H469.3v-85.3z"  horiz-adv-x="1024" />

    
    <glyph glyph-name="share" unicode="&#59353;" d="M597.3 768v-85.3h153.2L331.1 263.29999999999995l60.2-60.2 419.4 419.4v-153.2H896V768H597.3z m213.4-682.7H213.3V682.7H512V768H213.3c-47.4 0-85.3-38.4-85.3-85.3v-597.3c0-46.9 38-85.3 85.3-85.3h597.3c46.9 0 85.3 38.4 85.3 85.3V384h-85.3v-298.7z"  horiz-adv-x="1024" />

    
    <glyph glyph-name="edit" unicode="&#59354;" d="M883.5 595.6c16.6 16.6 16.6 43.5 0 60.2l-99.8 99.8c-16.6 16.6-43.5 16.6-60.2 0l-78.1-78.1 160-160 78.1 78.1zM127.9 159.89999999999998v-160h160l471.9 471.9-160 160-471.9-471.9z"  horiz-adv-x="1024" />

    
    <glyph glyph-name="search" unicode="&#59355;" d="M409.81333333 281.38666666999995c-113.28 0-204.8 91.52-204.8 204.8s91.52 204.8 204.8 204.8 204.8-91.52 204.8-204.8-91.52-204.8-204.8-204.8z m273.06666667 0h-35.94666667l-12.69333333 12.26666666c44.58666667 51.84 71.46666667 119.25333333 71.46666667 192.53333334 0 163.41333333-132.48 295.78666667-295.78666667 295.78666666S113.92 649.6 113.92 486.18666667 246.4 190.39999999999998 409.81333333 190.39999999999998c73.28 0 140.58666667 26.88 192.53333334 71.46666667l12.26666666-12.69333334v-35.94666666L842.13333333-13.866666669999972l67.84 67.84-227.09333333 227.41333334z"  horiz-adv-x="1024" />

    
    <glyph glyph-name="eye" unicode="&#59357;" d="M512 512c-70.8 0-128-57.2-128-128s57.2-128 128-128 128 57.2 128 128-57.2 128-128 128z m0-341.3c-117.8 0-213.3 95.6-213.3 213.3S394.2 597.3 512 597.3 725.3 501.8 725.3 384 629.7 170.70000000000005 512 170.70000000000005z m0 533.3c-213.3 0-395.5-132.7-469.3-320 73.8-187.3 256-320 469.3-320s395.5 132.7 469.3 320c-73.8 187.3-256 320-469.3 320z"  horiz-adv-x="1024" />

    
    <glyph glyph-name="code" unicode="&#59358;" d="M622.9 187.7L819.2 384 622.9 580.3l59.7 59.7 256-256-256-256-59.7 59.7z m-221.8 0L204.8 384l196.3 196.3-59.8 59.7-256-256 256-256 59.8 59.7z"  horiz-adv-x="1024" />

    
    <glyph glyph-name="setting" unicode="&#59359;" d="M512 234.7c-82.3 0-149.3 67-149.3 149.3s67 149.3 149.3 149.3 149.3-67 149.3-149.3S594.4 234.7 512 234.7z m317.1 107.5c1.7 13.7 3 27.3 3 41.8 0 14.5-1.3 28.2-3 41.8l90 70.4c8.1 6.4 10.2 17.9 5.1 27.3l-85.3 147.6c-5.1 9.4-16.6 12.8-26 9.4l-106.2-42.7c-22.2 17.1-46.1 31.1-72.1 41.8l-16.2 113.1c-1.4 10.3-10.4 18-21 18H426.7c-10.7 0-19.6-7.7-20.9-17.9l-16.2-113.1c-26-10.7-49.9-25.2-72.1-41.8l-106.2 42.7c-9.8 3.8-20.9 0-26-9.4L99.9 523.5c-5.5-9.4-3-20.9 5.1-27.3l90-70.4c-1.7-13.7-3-27.7-3-41.8 0-14.1 1.3-28.2 3-41.8l-90-70.4c-8.1-6.4-10.2-17.9-5.1-27.3l85.3-147.6c5.1-9.4 16.6-12.8 26-9.4l106.2 42.7c22.2-17.1 46.1-31.1 72.1-41.8l16.2-113.1c1.3-10.2 10.2-17.9 20.9-17.9h170.7c10.7 0 19.6 7.7 20.9 17.9l16.2 113.1c26 10.7 49.9 25.2 72.1 41.8l106.2-42.7c9.8-3.8 20.9 0 26 9.4L924 244.5c5.1 9.4 3 20.9-5.1 27.3l-89.8 70.4z"  horiz-adv-x="1024" />

    
    <glyph glyph-name="search-plus" unicode="&#59360;" d="M409.81333333 281.38666666999995c-113.28 0-204.8 91.52-204.8 204.8s91.52 204.8 204.8 204.8 204.8-91.52 204.8-204.8-91.52-204.8-204.8-204.8z m273.06666667 0h-35.94666667l-12.69333333 12.26666666c44.58666667 51.84 71.46666667 119.25333333 71.46666667 192.53333334 0 163.41333333-132.48 295.78666667-295.78666667 295.78666666S113.92 649.6 113.92 486.18666667 246.4 190.39999999999998 409.81333333 190.39999999999998c73.28 0 140.58666667 26.88 192.53333334 71.46666667l12.26666666-12.69333334v-35.94666666L842.13333333-13.866666669999972l67.84 67.84-227.09333333 227.41333334zM523.52 463.46666667h-90.98666667v-90.98666667h-45.54666666v90.98666667h-90.98666667v45.54666666h90.98666667v90.98666667h45.54666666v-90.98666667h90.98666667v-45.54666666z"  horiz-adv-x="1024" />

    
    <glyph glyph-name="search-minus" unicode="&#59361;" d="M296 508.90666667h227.52v-45.54666667H296v45.54666667z m113.81333333-227.52c-113.28 0-204.8 91.52-204.8 204.8s91.52 204.8 204.8 204.8 204.8-91.52 204.8-204.8-91.52-204.8-204.8-204.8z m273.06666667 0h-35.94666667l-12.69333333 12.26666666c44.58666667 51.84 71.46666667 119.25333333 71.46666667 192.53333334 0 163.41333333-132.48 295.78666667-295.78666667 295.78666666S113.92 649.6 113.92 486.18666667 246.4 190.39999999999998 409.81333333 190.39999999999998c73.28 0 140.58666667 26.88 192.53333334 71.46666667l12.26666666-12.69333334v-35.94666666L842.13333333-13.866666669999972l67.84 67.84-227.09333333 227.41333334z"  horiz-adv-x="1024" />

    
    <glyph glyph-name="eye-off" unicode="&#59362;" d="M505.3 532.5l134.4-134.4 0.9 6.8c0 70.8-57.2 128-128 128l-7.3-0.4z m-183.9-33.3l66.1-66.1c-2.1-9-3.4-18.3-3.4-27.7 0-70.8 57.2-128 128-128 9.4 0 18.8 1.3 27.7 3.4l66.1-66.1c-28.6-14.1-60.2-22.6-93.9-22.6-117.8 0-213.3 95.6-213.3 213.3 0.1 33.6 8.7 65.2 22.7 93.8zM85.5 735.1l97.3-97.3 19.6-19.6c-70.8-55-126.3-128.4-159.6-212.9 73.8-187.3 256-320 469.3-320 66.1 0 129.3 12.8 186.9 35.8l17.9-17.9 125-124.6 54.2 54.2-756.4 756.5-54.2-54.2z m426.7-116.4c117.8 0 213.3-95.6 213.3-213.3 0-27.7-5.5-53.8-15.4-78.1l124.6-124.6C899.1 256.5 949.9 326 981 405.4c-73.8 187.3-256 320-469.3 320-59.7 0-116.9-10.7-169.8-29.9l92.2-92.2c24.3 9.8 50.3 15.4 78.1 15.4z"  horiz-adv-x="1024" />

    
    <glyph glyph-name="trash-s" unicode="&#59348;" d="M810.2 725.8H660.8l-42.7 42.7H404.8l-42.7-42.7H212.8v-85.3h597.3v85.3z m-554.7-640c0-46.9 38.4-85.3 85.3-85.3h341.3c46.9 0 85.3 38.4 85.3 85.3v512h-512v-512z"  horiz-adv-x="1024" />

    
    <glyph glyph-name="export" unicode="&#59349;" d="M810.2 768.5H212.8c-47.4 0-85.3-38.4-85.3-85.3v-170.7h85.3V683.2h597.3v-597.3H212.8V256.5h-85.3v-170.7c0-46.9 38-85.3 85.3-85.3h597.3c46.9 0 85.3 38.4 85.3 85.3V683.2c0.1 46.9-38.3 85.3-85.2 85.3zM290.9 341.9h412.6v85.3H290.9L401 537.7l-60.2 60.1-213.3-213.4 213.3-213.3 60.2 60.2-110.1 110.6z"  horiz-adv-x="1024" />

    
    <glyph glyph-name="import" unicode="&#59350;" d="M810.2 768.5H212.8c-47.4 0-85.3-38.4-85.3-85.3v-170.7h85.3V683.2h597.3v-597.3H212.8V256.5h-85.3v-170.7c0-46.9 38-85.3 85.3-85.3h597.3c46.9 0 85.3 38.4 85.3 85.3V683.2c0.1 46.9-38.3 85.3-85.2 85.3zM430 231.29999999999995l60.2-60.2 213.3 213.3-213.3 213.4-60.2-60.1 110.1-110.5H127.5v-85.3h412.6L430 231.29999999999995z"  horiz-adv-x="1024" />

    
    <glyph glyph-name="home" unicode="&#59351;" d="M212.8 21.8V363.2h-128l426.7 384 426.7-384h-128v-341.3H596.8v256H426.2v-256H212.8z"  horiz-adv-x="1024" />

    
    <glyph glyph-name="calendar" unicode="&#59352;" d="M810.2 43.200000000000045H212.8V512.5h597.3v-469.3z m-128 768v-85.3H340.8V811.2h-85.3v-85.3h-42.7c-47.4 0-84.9-38.4-84.9-85.3l-0.4-597.3c0-46.9 38-85.3 85.3-85.3h597.3c46.9 0 85.3 38.4 85.3 85.3V640.5c0 46.9-38.4 85.3-85.3 85.3h-42.7V811.2h-85.2z m42.6-469.4H511.5v-213.3h213.3V341.79999999999995z"  horiz-adv-x="1024" />

    
    <glyph glyph-name="horizontal-right" unicode="&#59335;" d="M128.5 767.5v-85.3h768v85.3h-768z m256-256h512v85.3h-512v-85.3z m-256-170.7h768v85.3h-768v-85.3z m256-170.6h512v85.3h-512v-85.3z m-256-170.7h768v85.3h-768v-85.3z"  horiz-adv-x="1024" />

    
    <glyph glyph-name="vertical-middle" unicode="&#59336;" d="M427.2 340.79999999999995H256.5v-213.3h170.7V340.79999999999995z m-170.7 85.4h170.7V639.5H256.5v-213.3z m341.3-85.4h-85.3v-298.7H171.2V340.79999999999995H85.8v85.3h85.3V724.8h341.3v-298.7h85.3V596.8h256v-170.7H939v-85.3h-85.3v-170.7h-256V340.79999999999995z"  horiz-adv-x="1024" />

    
    <glyph glyph-name="vertical-bottom" unicode="&#59337;" d="M597.8 554.2h256v-426.7h-256V554.2z m-341.3 128v-469.3h170.7V682.2H256.5z m-85.3 85.3h341.3v-640H171.2v640zM85.8 84.79999999999995h853.3v-85.3H85.8v85.3z"  horiz-adv-x="1024" />

    
    <glyph glyph-name="horizontal-justify" unicode="&#59338;" d="M128.5 767.5v-85.3h768v85.3h-768z m0-256h768v85.3h-768v-85.3z m0-170.7h768v85.3h-768v-85.3z m0-170.6h768v85.3h-768v-85.3z m0-170.7h768v85.3h-768v-85.3z"  horiz-adv-x="1024" />

    
    <glyph glyph-name="horizontal-center" unicode="&#59339;" d="M128.5 767.5v-85.3h768v85.3h-768z m170.7-170.7v-85.3h426.7v85.3H299.2z m-170.7-256h768v85.3h-768v-85.3z m0-341.3h768v85.3h-768v-85.3z m170.7 256v-85.3h426.7v85.3H299.2z"  horiz-adv-x="1024" />

    
    <glyph glyph-name="vertical-top" unicode="&#59340;" d="M597.8 639.5h256v-426.7h-256V639.5z m-341.3-85.3v-469.3h170.7V554.2H256.5z m-85.3 85.3h341.3v-640H171.2v640z m-85.4 128h853.3v-85.3H85.8v85.3z"  horiz-adv-x="1024" />

    
    <glyph glyph-name="border-clear" unicode="&#59341;" d="M640.5 683.2h85.3v85.3h-85.3v-85.3z m0-341.4h85.3v85.3h-85.3v-85.3z m0-341.3h85.3v85.3h-85.3v-85.3zM469.8 683.2h85.3v85.3h-85.3v-85.3z m341.4 85.3v-85.3h85.3v85.3h-85.3z m-341.4-256h85.3v85.3h-85.3v-85.3z m341.4 0h85.3v85.3h-85.3v-85.3z m0-512h85.3v85.3h-85.3v-85.3z m0 341.3h85.3v85.3h-85.3v-85.3z m0-170.6h85.3v85.3h-85.3v-85.3zM469.8 341.79999999999995h85.3v85.3h-85.3v-85.3zM128.5 683.2h85.3v85.3h-85.3v-85.3z m0-170.7h85.3v85.3h-85.3v-85.3z m0-170.7h85.3v85.3h-85.3v-85.3z m0-170.6h85.3v85.3h-85.3v-85.3z m0-170.7h85.3v85.3h-85.3v-85.3z m341.3 0h85.3v85.3h-85.3v-85.3z m0 170.7h85.3v85.3h-85.3v-85.3zM299.2 0.5h85.3v85.3h-85.3v-85.3z m0 341.3h85.3v85.3h-85.3v-85.3z m0 341.4h85.3v85.3h-85.3v-85.3z"  horiz-adv-x="1024" />

    
    <glyph glyph-name="horizontal-left" unicode="&#59342;" d="M129 767v-85.3h768V767H129z m0-768h768v85.3H129V-1z m0 341.3h768v85.3H129v-85.3z m512 256H129V511h512v85.3z m0-341.3H129v-85.3h512V255z"  horiz-adv-x="1024" />

    
    <glyph glyph-name="border-all" unicode="&#59343;" d="M811.2 427.2h-256v256h256v-256z m0-341.4h-256v256h256v-256zM469.8 427.2h-256v256h256v-256z m0-341.4h-256v256h256v-256zM128.5 768.5v-768h768v768h-768z"  horiz-adv-x="1024" />

    


  </font>
</defs>
</svg>
